<?xml version="1.0" encoding="utf-8" standalone="no"?>
<!DOCTYPE svg PUBLIC "-//W3C//DTD SVG 1.1//EN"
  "http://www.w3.org/Graphics/SVG/1.1/DTD/svg11.dtd">
<svg xmlns:xlink="http://www.w3.org/1999/xlink" width="642.75525pt" height="346.3275pt" viewBox="0 0 642.75525 346.3275" xmlns="http://www.w3.org/2000/svg" version="1.1">
 <metadata>
  <rdf:RDF xmlns:dc="http://purl.org/dc/elements/1.1/" xmlns:cc="http://creativecommons.org/ns#" xmlns:rdf="http://www.w3.org/1999/02/22-rdf-syntax-ns#">
   <cc:Work>
    <dc:type rdf:resource="http://purl.org/dc/dcmitype/StillImage"/>
    <dc:date>2023-09-27T19:10:08.786159</dc:date>
    <dc:format>image/svg+xml</dc:format>
    <dc:creator>
     <cc:Agent>
      <dc:title>Matplotlib v3.7.2, https://matplotlib.org/</dc:title>
     </cc:Agent>
    </dc:creator>
   </cc:Work>
  </rdf:RDF>
 </metadata>
 <defs>
  <style type="text/css">*{stroke-linejoin: round; stroke-linecap: butt}</style>
 </defs>
 <g id="figure_1">
  <g id="patch_1">
   <path d="M 0 346.3275 
L 642.75525 346.3275 
L 642.75525 0 
L 0 0 
L 0 346.3275 
z
" style="fill: none"/>
  </g>
  <g id="axes_1">
   <g id="patch_2">
    <path d="M 77.0465 297.1575 
L 635.0465 297.1575 
L 635.0465 25.3575 
L 77.0465 25.3575 
z
" style="fill: #ffffff"/>
   </g>
   <g id="matplotlib.axis_1">
    <g id="xtick_1">
     <g id="line2d_1">
      <path d="M 98.882096 297.1575 
L 98.882096 25.3575 
" clip-path="url(#p59fbb18981)" style="fill: none; stroke-dasharray: 3.7,1.6; stroke-dashoffset: 0; stroke: #d3d3d3"/>
     </g>
     <g id="line2d_2">
      <defs>
       <path id="m7c4a45cda2" d="M 0 0 
L 0 3.5 
" style="stroke: #000000; stroke-width: 0.8"/>
      </defs>
      <g>
       <use xlink:href="#m7c4a45cda2" x="98.882096" y="297.1575" style="stroke: #000000; stroke-width: 0.8"/>
      </g>
     </g>
     <g id="text_1">
      <!-- 403 -->
      <g transform="translate(83.612096 316.315) scale(0.16 -0.16)">
       <defs>
        <path id="DejaVuSans-34" d="M 2419 4116 
L 825 1625 
L 2419 1625 
L 2419 4116 
z
M 2253 4666 
L 3047 4666 
L 3047 1625 
L 3713 1625 
L 3713 1100 
L 3047 1100 
L 3047 0 
L 2419 0 
L 2419 1100 
L 313 1100 
L 313 1709 
L 2253 4666 
z
" transform="scale(0.015625)"/>
        <path id="DejaVuSans-30" d="M 2034 4250 
Q 1547 4250 1301 3770 
Q 1056 3291 1056 2328 
Q 1056 1369 1301 889 
Q 1547 409 2034 409 
Q 2525 409 2770 889 
Q 3016 1369 3016 2328 
Q 3016 3291 2770 3770 
Q 2525 4250 2034 4250 
z
M 2034 4750 
Q 2819 4750 3233 4129 
Q 3647 3509 3647 2328 
Q 3647 1150 3233 529 
Q 2819 -91 2034 -91 
Q 1250 -91 836 529 
Q 422 1150 422 2328 
Q 422 3509 836 4129 
Q 1250 4750 2034 4750 
z
" transform="scale(0.015625)"/>
        <path id="DejaVuSans-33" d="M 2597 2516 
Q 3050 2419 3304 2112 
Q 3559 1806 3559 1356 
Q 3559 666 3084 287 
Q 2609 -91 1734 -91 
Q 1441 -91 1130 -33 
Q 819 25 488 141 
L 488 750 
Q 750 597 1062 519 
Q 1375 441 1716 441 
Q 2309 441 2620 675 
Q 2931 909 2931 1356 
Q 2931 1769 2642 2001 
Q 2353 2234 1838 2234 
L 1294 2234 
L 1294 2753 
L 1863 2753 
Q 2328 2753 2575 2939 
Q 2822 3125 2822 3475 
Q 2822 3834 2567 4026 
Q 2313 4219 1838 4219 
Q 1578 4219 1281 4162 
Q 984 4106 628 3988 
L 628 4550 
Q 988 4650 1302 4700 
Q 1616 4750 1894 4750 
Q 2613 4750 3031 4423 
Q 3450 4097 3450 3541 
Q 3450 3153 3228 2886 
Q 3006 2619 2597 2516 
z
" transform="scale(0.015625)"/>
       </defs>
       <use xlink:href="#DejaVuSans-34"/>
       <use xlink:href="#DejaVuSans-30" x="63.623047"/>
       <use xlink:href="#DejaVuSans-33" x="127.246094"/>
      </g>
     </g>
    </g>
    <g id="xtick_2">
     <g id="line2d_3">
      <path d="M 145.63926 297.1575 
L 145.63926 25.3575 
" clip-path="url(#p59fbb18981)" style="fill: none; stroke-dasharray: 3.7,1.6; stroke-dashoffset: 0; stroke: #d3d3d3"/>
     </g>
     <g id="line2d_4">
      <g>
       <use xlink:href="#m7c4a45cda2" x="145.63926" y="297.1575" style="stroke: #000000; stroke-width: 0.8"/>
      </g>
     </g>
     <g id="text_2">
      <!-- 406 -->
      <g transform="translate(130.36926 316.315) scale(0.16 -0.16)">
       <defs>
        <path id="DejaVuSans-36" d="M 2113 2584 
Q 1688 2584 1439 2293 
Q 1191 2003 1191 1497 
Q 1191 994 1439 701 
Q 1688 409 2113 409 
Q 2538 409 2786 701 
Q 3034 994 3034 1497 
Q 3034 2003 2786 2293 
Q 2538 2584 2113 2584 
z
M 3366 4563 
L 3366 3988 
Q 3128 4100 2886 4159 
Q 2644 4219 2406 4219 
Q 1781 4219 1451 3797 
Q 1122 3375 1075 2522 
Q 1259 2794 1537 2939 
Q 1816 3084 2150 3084 
Q 2853 3084 3261 2657 
Q 3669 2231 3669 1497 
Q 3669 778 3244 343 
Q 2819 -91 2113 -91 
Q 1303 -91 875 529 
Q 447 1150 447 2328 
Q 447 3434 972 4092 
Q 1497 4750 2381 4750 
Q 2619 4750 2861 4703 
Q 3103 4656 3366 4563 
z
" transform="scale(0.015625)"/>
       </defs>
       <use xlink:href="#DejaVuSans-34"/>
       <use xlink:href="#DejaVuSans-30" x="63.623047"/>
       <use xlink:href="#DejaVuSans-36" x="127.246094"/>
      </g>
     </g>
    </g>
    <g id="xtick_3">
     <g id="line2d_5">
      <path d="M 192.396425 297.1575 
L 192.396425 25.3575 
" clip-path="url(#p59fbb18981)" style="fill: none; stroke-dasharray: 3.7,1.6; stroke-dashoffset: 0; stroke: #d3d3d3"/>
     </g>
     <g id="line2d_6">
      <g>
       <use xlink:href="#m7c4a45cda2" x="192.396425" y="297.1575" style="stroke: #000000; stroke-width: 0.8"/>
      </g>
     </g>
     <g id="text_3">
      <!-- 555 -->
      <g transform="translate(177.126425 316.315) scale(0.16 -0.16)">
       <defs>
        <path id="DejaVuSans-35" d="M 691 4666 
L 3169 4666 
L 3169 4134 
L 1269 4134 
L 1269 2991 
Q 1406 3038 1543 3061 
Q 1681 3084 1819 3084 
Q 2600 3084 3056 2656 
Q 3513 2228 3513 1497 
Q 3513 744 3044 326 
Q 2575 -91 1722 -91 
Q 1428 -91 1123 -41 
Q 819 9 494 109 
L 494 744 
Q 775 591 1075 516 
Q 1375 441 1709 441 
Q 2250 441 2565 725 
Q 2881 1009 2881 1497 
Q 2881 1984 2565 2268 
Q 2250 2553 1709 2553 
Q 1456 2553 1204 2497 
Q 953 2441 691 2322 
L 691 4666 
z
" transform="scale(0.015625)"/>
       </defs>
       <use xlink:href="#DejaVuSans-35"/>
       <use xlink:href="#DejaVuSans-35" x="63.623047"/>
       <use xlink:href="#DejaVuSans-35" x="127.246094"/>
      </g>
     </g>
    </g>
    <g id="xtick_4">
     <g id="line2d_7">
      <path d="M 239.153589 297.1575 
L 239.153589 25.3575 
" clip-path="url(#p59fbb18981)" style="fill: none; stroke-dasharray: 3.7,1.6; stroke-dashoffset: 0; stroke: #d3d3d3"/>
     </g>
     <g id="line2d_8">
      <g>
       <use xlink:href="#m7c4a45cda2" x="239.153589" y="297.1575" style="stroke: #000000; stroke-width: 0.8"/>
      </g>
     </g>
     <g id="text_4">
      <!-- 531 -->
      <g transform="translate(223.883589 316.315) scale(0.16 -0.16)">
       <defs>
        <path id="DejaVuSans-31" d="M 794 531 
L 1825 531 
L 1825 4091 
L 703 3866 
L 703 4441 
L 1819 4666 
L 2450 4666 
L 2450 531 
L 3481 531 
L 3481 0 
L 794 0 
L 794 531 
z
" transform="scale(0.015625)"/>
       </defs>
       <use xlink:href="#DejaVuSans-35"/>
       <use xlink:href="#DejaVuSans-33" x="63.623047"/>
       <use xlink:href="#DejaVuSans-31" x="127.246094"/>
      </g>
     </g>
    </g>
    <g id="xtick_5">
     <g id="line2d_9">
      <path d="M 285.910753 297.1575 
L 285.910753 25.3575 
" clip-path="url(#p59fbb18981)" style="fill: none; stroke-dasharray: 3.7,1.6; stroke-dashoffset: 0; stroke: #d3d3d3"/>
     </g>
     <g id="line2d_10">
      <g>
       <use xlink:href="#m7c4a45cda2" x="285.910753" y="297.1575" style="stroke: #000000; stroke-width: 0.8"/>
      </g>
     </g>
     <g id="text_5">
      <!-- 394 -->
      <g transform="translate(270.640753 316.315) scale(0.16 -0.16)">
       <defs>
        <path id="DejaVuSans-39" d="M 703 97 
L 703 672 
Q 941 559 1184 500 
Q 1428 441 1663 441 
Q 2288 441 2617 861 
Q 2947 1281 2994 2138 
Q 2813 1869 2534 1725 
Q 2256 1581 1919 1581 
Q 1219 1581 811 2004 
Q 403 2428 403 3163 
Q 403 3881 828 4315 
Q 1253 4750 1959 4750 
Q 2769 4750 3195 4129 
Q 3622 3509 3622 2328 
Q 3622 1225 3098 567 
Q 2575 -91 1691 -91 
Q 1453 -91 1209 -44 
Q 966 3 703 97 
z
M 1959 2075 
Q 2384 2075 2632 2365 
Q 2881 2656 2881 3163 
Q 2881 3666 2632 3958 
Q 2384 4250 1959 4250 
Q 1534 4250 1286 3958 
Q 1038 3666 1038 3163 
Q 1038 2656 1286 2365 
Q 1534 2075 1959 2075 
z
" transform="scale(0.015625)"/>
       </defs>
       <use xlink:href="#DejaVuSans-33"/>
       <use xlink:href="#DejaVuSans-39" x="63.623047"/>
       <use xlink:href="#DejaVuSans-34" x="127.246094"/>
      </g>
     </g>
    </g>
    <g id="xtick_6">
     <g id="line2d_11">
      <path d="M 332.667918 297.1575 
L 332.667918 25.3575 
" clip-path="url(#p59fbb18981)" style="fill: none; stroke-dasharray: 3.7,1.6; stroke-dashoffset: 0; stroke: #d3d3d3"/>
     </g>
     <g id="line2d_12">
      <g>
       <use xlink:href="#m7c4a45cda2" x="332.667918" y="297.1575" style="stroke: #000000; stroke-width: 0.8"/>
      </g>
     </g>
     <g id="text_6">
      <!-- 504 -->
      <g transform="translate(317.397918 316.315) scale(0.16 -0.16)">
       <use xlink:href="#DejaVuSans-35"/>
       <use xlink:href="#DejaVuSans-30" x="63.623047"/>
       <use xlink:href="#DejaVuSans-34" x="127.246094"/>
      </g>
     </g>
    </g>
    <g id="xtick_7">
     <g id="line2d_13">
      <path d="M 379.425082 297.1575 
L 379.425082 25.3575 
" clip-path="url(#p59fbb18981)" style="fill: none; stroke-dasharray: 3.7,1.6; stroke-dashoffset: 0; stroke: #d3d3d3"/>
     </g>
     <g id="line2d_14">
      <g>
       <use xlink:href="#m7c4a45cda2" x="379.425082" y="297.1575" style="stroke: #000000; stroke-width: 0.8"/>
      </g>
     </g>
     <g id="text_7">
      <!-- 454 -->
      <g transform="translate(364.155082 316.315) scale(0.16 -0.16)">
       <use xlink:href="#DejaVuSans-34"/>
       <use xlink:href="#DejaVuSans-35" x="63.623047"/>
       <use xlink:href="#DejaVuSans-34" x="127.246094"/>
      </g>
     </g>
    </g>
    <g id="xtick_8">
     <g id="line2d_15">
      <path d="M 426.182247 297.1575 
L 426.182247 25.3575 
" clip-path="url(#p59fbb18981)" style="fill: none; stroke-dasharray: 3.7,1.6; stroke-dashoffset: 0; stroke: #d3d3d3"/>
     </g>
     <g id="line2d_16">
      <g>
       <use xlink:href="#m7c4a45cda2" x="426.182247" y="297.1575" style="stroke: #000000; stroke-width: 0.8"/>
      </g>
     </g>
     <g id="text_8">
      <!-- 455 -->
      <g transform="translate(410.912247 316.315) scale(0.16 -0.16)">
       <use xlink:href="#DejaVuSans-34"/>
       <use xlink:href="#DejaVuSans-35" x="63.623047"/>
       <use xlink:href="#DejaVuSans-35" x="127.246094"/>
      </g>
     </g>
    </g>
    <g id="xtick_9">
     <g id="line2d_17">
      <path d="M 472.939411 297.1575 
L 472.939411 25.3575 
" clip-path="url(#p59fbb18981)" style="fill: none; stroke-dasharray: 3.7,1.6; stroke-dashoffset: 0; stroke: #d3d3d3"/>
     </g>
     <g id="line2d_18">
      <g>
       <use xlink:href="#m7c4a45cda2" x="472.939411" y="297.1575" style="stroke: #000000; stroke-width: 0.8"/>
      </g>
     </g>
     <g id="text_9">
      <!-- 375 -->
      <g transform="translate(457.669411 316.315) scale(0.16 -0.16)">
       <defs>
        <path id="DejaVuSans-37" d="M 525 4666 
L 3525 4666 
L 3525 4397 
L 1831 0 
L 1172 0 
L 2766 4134 
L 525 4134 
L 525 4666 
z
" transform="scale(0.015625)"/>
       </defs>
       <use xlink:href="#DejaVuSans-33"/>
       <use xlink:href="#DejaVuSans-37" x="63.623047"/>
       <use xlink:href="#DejaVuSans-35" x="127.246094"/>
      </g>
     </g>
    </g>
    <g id="xtick_10">
     <g id="line2d_19">
      <path d="M 519.696575 297.1575 
L 519.696575 25.3575 
" clip-path="url(#p59fbb18981)" style="fill: none; stroke-dasharray: 3.7,1.6; stroke-dashoffset: 0; stroke: #d3d3d3"/>
     </g>
     <g id="line2d_20">
      <g>
       <use xlink:href="#m7c4a45cda2" x="519.696575" y="297.1575" style="stroke: #000000; stroke-width: 0.8"/>
      </g>
     </g>
     <g id="text_10">
      <!-- 393 -->
      <g transform="translate(504.426575 316.315) scale(0.16 -0.16)">
       <use xlink:href="#DejaVuSans-33"/>
       <use xlink:href="#DejaVuSans-39" x="63.623047"/>
       <use xlink:href="#DejaVuSans-33" x="127.246094"/>
      </g>
     </g>
    </g>
    <g id="xtick_11">
     <g id="line2d_21">
      <path d="M 566.45374 297.1575 
L 566.45374 25.3575 
" clip-path="url(#p59fbb18981)" style="fill: none; stroke-dasharray: 3.7,1.6; stroke-dashoffset: 0; stroke: #d3d3d3"/>
     </g>
     <g id="line2d_22">
      <g>
       <use xlink:href="#m7c4a45cda2" x="566.45374" y="297.1575" style="stroke: #000000; stroke-width: 0.8"/>
      </g>
     </g>
     <g id="text_11">
      <!-- 388 -->
      <g transform="translate(551.18374 316.315) scale(0.16 -0.16)">
       <defs>
        <path id="DejaVuSans-38" d="M 2034 2216 
Q 1584 2216 1326 1975 
Q 1069 1734 1069 1313 
Q 1069 891 1326 650 
Q 1584 409 2034 409 
Q 2484 409 2743 651 
Q 3003 894 3003 1313 
Q 3003 1734 2745 1975 
Q 2488 2216 2034 2216 
z
M 1403 2484 
Q 997 2584 770 2862 
Q 544 3141 544 3541 
Q 544 4100 942 4425 
Q 1341 4750 2034 4750 
Q 2731 4750 3128 4425 
Q 3525 4100 3525 3541 
Q 3525 3141 3298 2862 
Q 3072 2584 2669 2484 
Q 3125 2378 3379 2068 
Q 3634 1759 3634 1313 
Q 3634 634 3220 271 
Q 2806 -91 2034 -91 
Q 1263 -91 848 271 
Q 434 634 434 1313 
Q 434 1759 690 2068 
Q 947 2378 1403 2484 
z
M 1172 3481 
Q 1172 3119 1398 2916 
Q 1625 2713 2034 2713 
Q 2441 2713 2670 2916 
Q 2900 3119 2900 3481 
Q 2900 3844 2670 4047 
Q 2441 4250 2034 4250 
Q 1625 4250 1398 4047 
Q 1172 3844 1172 3481 
z
" transform="scale(0.015625)"/>
       </defs>
       <use xlink:href="#DejaVuSans-33"/>
       <use xlink:href="#DejaVuSans-38" x="63.623047"/>
       <use xlink:href="#DejaVuSans-38" x="127.246094"/>
      </g>
     </g>
    </g>
    <g id="xtick_12">
     <g id="line2d_23">
      <path d="M 613.210904 297.1575 
L 613.210904 25.3575 
" clip-path="url(#p59fbb18981)" style="fill: none; stroke-dasharray: 3.7,1.6; stroke-dashoffset: 0; stroke: #d3d3d3"/>
     </g>
     <g id="line2d_24">
      <g>
       <use xlink:href="#m7c4a45cda2" x="613.210904" y="297.1575" style="stroke: #000000; stroke-width: 0.8"/>
      </g>
     </g>
     <g id="text_12">
      <!-- 376 -->
      <g transform="translate(597.940904 316.315) scale(0.16 -0.16)">
       <use xlink:href="#DejaVuSans-33"/>
       <use xlink:href="#DejaVuSans-37" x="63.623047"/>
       <use xlink:href="#DejaVuSans-36" x="127.246094"/>
      </g>
     </g>
    </g>
    <g id="text_13">
     <!-- Donor -->
     <g transform="translate(331.73775 335.8) scale(0.16 -0.16)">
      <defs>
       <path id="DejaVuSans-44" d="M 1259 4147 
L 1259 519 
L 2022 519 
Q 2988 519 3436 956 
Q 3884 1394 3884 2338 
Q 3884 3275 3436 3711 
Q 2988 4147 2022 4147 
L 1259 4147 
z
M 628 4666 
L 1925 4666 
Q 3281 4666 3915 4102 
Q 4550 3538 4550 2338 
Q 4550 1131 3912 565 
Q 3275 0 1925 0 
L 628 0 
L 628 4666 
z
" transform="scale(0.015625)"/>
       <path id="DejaVuSans-6f" d="M 1959 3097 
Q 1497 3097 1228 2736 
Q 959 2375 959 1747 
Q 959 1119 1226 758 
Q 1494 397 1959 397 
Q 2419 397 2687 759 
Q 2956 1122 2956 1747 
Q 2956 2369 2687 2733 
Q 2419 3097 1959 3097 
z
M 1959 3584 
Q 2709 3584 3137 3096 
Q 3566 2609 3566 1747 
Q 3566 888 3137 398 
Q 2709 -91 1959 -91 
Q 1206 -91 779 398 
Q 353 888 353 1747 
Q 353 2609 779 3096 
Q 1206 3584 1959 3584 
z
" transform="scale(0.015625)"/>
       <path id="DejaVuSans-6e" d="M 3513 2113 
L 3513 0 
L 2938 0 
L 2938 2094 
Q 2938 2591 2744 2837 
Q 2550 3084 2163 3084 
Q 1697 3084 1428 2787 
Q 1159 2491 1159 1978 
L 1159 0 
L 581 0 
L 581 3500 
L 1159 3500 
L 1159 2956 
Q 1366 3272 1645 3428 
Q 1925 3584 2291 3584 
Q 2894 3584 3203 3211 
Q 3513 2838 3513 2113 
z
" transform="scale(0.015625)"/>
       <path id="DejaVuSans-72" d="M 2631 2963 
Q 2534 3019 2420 3045 
Q 2306 3072 2169 3072 
Q 1681 3072 1420 2755 
Q 1159 2438 1159 1844 
L 1159 0 
L 581 0 
L 581 3500 
L 1159 3500 
L 1159 2956 
Q 1341 3275 1631 3429 
Q 1922 3584 2338 3584 
Q 2397 3584 2469 3576 
Q 2541 3569 2628 3553 
L 2631 2963 
z
" transform="scale(0.015625)"/>
      </defs>
      <use xlink:href="#DejaVuSans-44"/>
      <use xlink:href="#DejaVuSans-6f" x="77.001953"/>
      <use xlink:href="#DejaVuSans-6e" x="138.183594"/>
      <use xlink:href="#DejaVuSans-6f" x="201.5625"/>
      <use xlink:href="#DejaVuSans-72" x="262.744141"/>
     </g>
    </g>
   </g>
   <g id="matplotlib.axis_2">
    <g id="ytick_1">
     <g id="line2d_25">
      <path d="M 77.0465 297.1575 
L 635.0465 297.1575 
" clip-path="url(#p59fbb18981)" style="fill: none; stroke-dasharray: 3.7,1.6; stroke-dashoffset: 0; stroke: #d3d3d3"/>
     </g>
     <g id="line2d_26">
      <defs>
       <path id="m75b1c2f377" d="M 0 0 
L -3.5 0 
" style="stroke: #000000; stroke-width: 0.8"/>
      </defs>
      <g>
       <use xlink:href="#m75b1c2f377" x="77.0465" y="297.1575" style="stroke: #000000; stroke-width: 0.8"/>
      </g>
     </g>
     <g id="text_14">
      <!-- 0.0 -->
      <g transform="translate(44.6015 303.23625) scale(0.16 -0.16)">
       <defs>
        <path id="DejaVuSans-2e" d="M 684 794 
L 1344 794 
L 1344 0 
L 684 0 
L 684 794 
z
" transform="scale(0.015625)"/>
       </defs>
       <use xlink:href="#DejaVuSans-30"/>
       <use xlink:href="#DejaVuSans-2e" x="63.623047"/>
       <use xlink:href="#DejaVuSans-30" x="95.410156"/>
      </g>
     </g>
    </g>
    <g id="ytick_2">
     <g id="line2d_27">
      <path d="M 77.0465 252.538703 
L 635.0465 252.538703 
" clip-path="url(#p59fbb18981)" style="fill: none; stroke-dasharray: 3.7,1.6; stroke-dashoffset: 0; stroke: #d3d3d3"/>
     </g>
     <g id="line2d_28">
      <g>
       <use xlink:href="#m75b1c2f377" x="77.0465" y="252.538703" style="stroke: #000000; stroke-width: 0.8"/>
      </g>
     </g>
     <g id="text_15">
      <!-- 0.2 -->
      <g transform="translate(44.6015 258.617453) scale(0.16 -0.16)">
       <defs>
        <path id="DejaVuSans-32" d="M 1228 531 
L 3431 531 
L 3431 0 
L 469 0 
L 469 531 
Q 828 903 1448 1529 
Q 2069 2156 2228 2338 
Q 2531 2678 2651 2914 
Q 2772 3150 2772 3378 
Q 2772 3750 2511 3984 
Q 2250 4219 1831 4219 
Q 1534 4219 1204 4116 
Q 875 4013 500 3803 
L 500 4441 
Q 881 4594 1212 4672 
Q 1544 4750 1819 4750 
Q 2544 4750 2975 4387 
Q 3406 4025 3406 3419 
Q 3406 3131 3298 2873 
Q 3191 2616 2906 2266 
Q 2828 2175 2409 1742 
Q 1991 1309 1228 531 
z
" transform="scale(0.015625)"/>
       </defs>
       <use xlink:href="#DejaVuSans-30"/>
       <use xlink:href="#DejaVuSans-2e" x="63.623047"/>
       <use xlink:href="#DejaVuSans-32" x="95.410156"/>
      </g>
     </g>
    </g>
    <g id="ytick_3">
     <g id="line2d_29">
      <path d="M 77.0465 207.919906 
L 635.0465 207.919906 
" clip-path="url(#p59fbb18981)" style="fill: none; stroke-dasharray: 3.7,1.6; stroke-dashoffset: 0; stroke: #d3d3d3"/>
     </g>
     <g id="line2d_30">
      <g>
       <use xlink:href="#m75b1c2f377" x="77.0465" y="207.919906" style="stroke: #000000; stroke-width: 0.8"/>
      </g>
     </g>
     <g id="text_16">
      <!-- 0.4 -->
      <g transform="translate(44.6015 213.998656) scale(0.16 -0.16)">
       <use xlink:href="#DejaVuSans-30"/>
       <use xlink:href="#DejaVuSans-2e" x="63.623047"/>
       <use xlink:href="#DejaVuSans-34" x="95.410156"/>
      </g>
     </g>
    </g>
    <g id="ytick_4">
     <g id="line2d_31">
      <path d="M 77.0465 163.301109 
L 635.0465 163.301109 
" clip-path="url(#p59fbb18981)" style="fill: none; stroke-dasharray: 3.7,1.6; stroke-dashoffset: 0; stroke: #d3d3d3"/>
     </g>
     <g id="line2d_32">
      <g>
       <use xlink:href="#m75b1c2f377" x="77.0465" y="163.301109" style="stroke: #000000; stroke-width: 0.8"/>
      </g>
     </g>
     <g id="text_17">
      <!-- 0.6 -->
      <g transform="translate(44.6015 169.379859) scale(0.16 -0.16)">
       <use xlink:href="#DejaVuSans-30"/>
       <use xlink:href="#DejaVuSans-2e" x="63.623047"/>
       <use xlink:href="#DejaVuSans-36" x="95.410156"/>
      </g>
     </g>
    </g>
    <g id="ytick_5">
     <g id="line2d_33">
      <path d="M 77.0465 118.682312 
L 635.0465 118.682312 
" clip-path="url(#p59fbb18981)" style="fill: none; stroke-dasharray: 3.7,1.6; stroke-dashoffset: 0; stroke: #d3d3d3"/>
     </g>
     <g id="line2d_34">
      <g>
       <use xlink:href="#m75b1c2f377" x="77.0465" y="118.682312" style="stroke: #000000; stroke-width: 0.8"/>
      </g>
     </g>
     <g id="text_18">
      <!-- 0.8 -->
      <g transform="translate(44.6015 124.761062) scale(0.16 -0.16)">
       <use xlink:href="#DejaVuSans-30"/>
       <use xlink:href="#DejaVuSans-2e" x="63.623047"/>
       <use xlink:href="#DejaVuSans-38" x="95.410156"/>
      </g>
     </g>
    </g>
    <g id="ytick_6">
     <g id="line2d_35">
      <path d="M 77.0465 74.063515 
L 635.0465 74.063515 
" clip-path="url(#p59fbb18981)" style="fill: none; stroke-dasharray: 3.7,1.6; stroke-dashoffset: 0; stroke: #d3d3d3"/>
     </g>
     <g id="line2d_36">
      <g>
       <use xlink:href="#m75b1c2f377" x="77.0465" y="74.063515" style="stroke: #000000; stroke-width: 0.8"/>
      </g>
     </g>
     <g id="text_19">
      <!-- 1.0 -->
      <g transform="translate(44.6015 80.142265) scale(0.16 -0.16)">
       <use xlink:href="#DejaVuSans-31"/>
       <use xlink:href="#DejaVuSans-2e" x="63.623047"/>
       <use xlink:href="#DejaVuSans-30" x="95.410156"/>
      </g>
     </g>
    </g>
    <g id="ytick_7">
     <g id="line2d_37">
      <path d="M 77.0465 29.444718 
L 635.0465 29.444718 
" clip-path="url(#p59fbb18981)" style="fill: none; stroke-dasharray: 3.7,1.6; stroke-dashoffset: 0; stroke: #d3d3d3"/>
     </g>
     <g id="line2d_38">
      <g>
       <use xlink:href="#m75b1c2f377" x="77.0465" y="29.444718" style="stroke: #000000; stroke-width: 0.8"/>
      </g>
     </g>
     <g id="text_20">
      <!-- 1.2 -->
      <g transform="translate(44.6015 35.523468) scale(0.16 -0.16)">
       <use xlink:href="#DejaVuSans-31"/>
       <use xlink:href="#DejaVuSans-2e" x="63.623047"/>
       <use xlink:href="#DejaVuSans-32" x="95.410156"/>
      </g>
     </g>
    </g>
    <g id="text_21">
     <!-- # unique CDR3 amino acid -->
     <g transform="translate(19.3575 269.445) rotate(-90) scale(0.16 -0.16)">
      <defs>
       <path id="DejaVuSans-23" d="M 3272 2816 
L 2363 2816 
L 2100 1772 
L 3016 1772 
L 3272 2816 
z
M 2803 4594 
L 2478 3297 
L 3391 3297 
L 3719 4594 
L 4219 4594 
L 3897 3297 
L 4872 3297 
L 4872 2816 
L 3775 2816 
L 3519 1772 
L 4513 1772 
L 4513 1294 
L 3397 1294 
L 3072 0 
L 2572 0 
L 2894 1294 
L 1978 1294 
L 1656 0 
L 1153 0 
L 1478 1294 
L 494 1294 
L 494 1772 
L 1594 1772 
L 1856 2816 
L 850 2816 
L 850 3297 
L 1978 3297 
L 2297 4594 
L 2803 4594 
z
" transform="scale(0.015625)"/>
       <path id="DejaVuSans-20" transform="scale(0.015625)"/>
       <path id="DejaVuSans-75" d="M 544 1381 
L 544 3500 
L 1119 3500 
L 1119 1403 
Q 1119 906 1312 657 
Q 1506 409 1894 409 
Q 2359 409 2629 706 
Q 2900 1003 2900 1516 
L 2900 3500 
L 3475 3500 
L 3475 0 
L 2900 0 
L 2900 538 
Q 2691 219 2414 64 
Q 2138 -91 1772 -91 
Q 1169 -91 856 284 
Q 544 659 544 1381 
z
M 1991 3584 
L 1991 3584 
z
" transform="scale(0.015625)"/>
       <path id="DejaVuSans-69" d="M 603 3500 
L 1178 3500 
L 1178 0 
L 603 0 
L 603 3500 
z
M 603 4863 
L 1178 4863 
L 1178 4134 
L 603 4134 
L 603 4863 
z
" transform="scale(0.015625)"/>
       <path id="DejaVuSans-71" d="M 947 1747 
Q 947 1113 1208 752 
Q 1469 391 1925 391 
Q 2381 391 2643 752 
Q 2906 1113 2906 1747 
Q 2906 2381 2643 2742 
Q 2381 3103 1925 3103 
Q 1469 3103 1208 2742 
Q 947 2381 947 1747 
z
M 2906 525 
Q 2725 213 2448 61 
Q 2172 -91 1784 -91 
Q 1150 -91 751 415 
Q 353 922 353 1747 
Q 353 2572 751 3078 
Q 1150 3584 1784 3584 
Q 2172 3584 2448 3432 
Q 2725 3281 2906 2969 
L 2906 3500 
L 3481 3500 
L 3481 -1331 
L 2906 -1331 
L 2906 525 
z
" transform="scale(0.015625)"/>
       <path id="DejaVuSans-65" d="M 3597 1894 
L 3597 1613 
L 953 1613 
Q 991 1019 1311 708 
Q 1631 397 2203 397 
Q 2534 397 2845 478 
Q 3156 559 3463 722 
L 3463 178 
Q 3153 47 2828 -22 
Q 2503 -91 2169 -91 
Q 1331 -91 842 396 
Q 353 884 353 1716 
Q 353 2575 817 3079 
Q 1281 3584 2069 3584 
Q 2775 3584 3186 3129 
Q 3597 2675 3597 1894 
z
M 3022 2063 
Q 3016 2534 2758 2815 
Q 2500 3097 2075 3097 
Q 1594 3097 1305 2825 
Q 1016 2553 972 2059 
L 3022 2063 
z
" transform="scale(0.015625)"/>
       <path id="DejaVuSans-43" d="M 4122 4306 
L 4122 3641 
Q 3803 3938 3442 4084 
Q 3081 4231 2675 4231 
Q 1875 4231 1450 3742 
Q 1025 3253 1025 2328 
Q 1025 1406 1450 917 
Q 1875 428 2675 428 
Q 3081 428 3442 575 
Q 3803 722 4122 1019 
L 4122 359 
Q 3791 134 3420 21 
Q 3050 -91 2638 -91 
Q 1578 -91 968 557 
Q 359 1206 359 2328 
Q 359 3453 968 4101 
Q 1578 4750 2638 4750 
Q 3056 4750 3426 4639 
Q 3797 4528 4122 4306 
z
" transform="scale(0.015625)"/>
       <path id="DejaVuSans-52" d="M 2841 2188 
Q 3044 2119 3236 1894 
Q 3428 1669 3622 1275 
L 4263 0 
L 3584 0 
L 2988 1197 
Q 2756 1666 2539 1819 
Q 2322 1972 1947 1972 
L 1259 1972 
L 1259 0 
L 628 0 
L 628 4666 
L 2053 4666 
Q 2853 4666 3247 4331 
Q 3641 3997 3641 3322 
Q 3641 2881 3436 2590 
Q 3231 2300 2841 2188 
z
M 1259 4147 
L 1259 2491 
L 2053 2491 
Q 2509 2491 2742 2702 
Q 2975 2913 2975 3322 
Q 2975 3731 2742 3939 
Q 2509 4147 2053 4147 
L 1259 4147 
z
" transform="scale(0.015625)"/>
       <path id="DejaVuSans-61" d="M 2194 1759 
Q 1497 1759 1228 1600 
Q 959 1441 959 1056 
Q 959 750 1161 570 
Q 1363 391 1709 391 
Q 2188 391 2477 730 
Q 2766 1069 2766 1631 
L 2766 1759 
L 2194 1759 
z
M 3341 1997 
L 3341 0 
L 2766 0 
L 2766 531 
Q 2569 213 2275 61 
Q 1981 -91 1556 -91 
Q 1019 -91 701 211 
Q 384 513 384 1019 
Q 384 1609 779 1909 
Q 1175 2209 1959 2209 
L 2766 2209 
L 2766 2266 
Q 2766 2663 2505 2880 
Q 2244 3097 1772 3097 
Q 1472 3097 1187 3025 
Q 903 2953 641 2809 
L 641 3341 
Q 956 3463 1253 3523 
Q 1550 3584 1831 3584 
Q 2591 3584 2966 3190 
Q 3341 2797 3341 1997 
z
" transform="scale(0.015625)"/>
       <path id="DejaVuSans-6d" d="M 3328 2828 
Q 3544 3216 3844 3400 
Q 4144 3584 4550 3584 
Q 5097 3584 5394 3201 
Q 5691 2819 5691 2113 
L 5691 0 
L 5113 0 
L 5113 2094 
Q 5113 2597 4934 2840 
Q 4756 3084 4391 3084 
Q 3944 3084 3684 2787 
Q 3425 2491 3425 1978 
L 3425 0 
L 2847 0 
L 2847 2094 
Q 2847 2600 2669 2842 
Q 2491 3084 2119 3084 
Q 1678 3084 1418 2786 
Q 1159 2488 1159 1978 
L 1159 0 
L 581 0 
L 581 3500 
L 1159 3500 
L 1159 2956 
Q 1356 3278 1631 3431 
Q 1906 3584 2284 3584 
Q 2666 3584 2933 3390 
Q 3200 3197 3328 2828 
z
" transform="scale(0.015625)"/>
       <path id="DejaVuSans-63" d="M 3122 3366 
L 3122 2828 
Q 2878 2963 2633 3030 
Q 2388 3097 2138 3097 
Q 1578 3097 1268 2742 
Q 959 2388 959 1747 
Q 959 1106 1268 751 
Q 1578 397 2138 397 
Q 2388 397 2633 464 
Q 2878 531 3122 666 
L 3122 134 
Q 2881 22 2623 -34 
Q 2366 -91 2075 -91 
Q 1284 -91 818 406 
Q 353 903 353 1747 
Q 353 2603 823 3093 
Q 1294 3584 2113 3584 
Q 2378 3584 2631 3529 
Q 2884 3475 3122 3366 
z
" transform="scale(0.015625)"/>
       <path id="DejaVuSans-64" d="M 2906 2969 
L 2906 4863 
L 3481 4863 
L 3481 0 
L 2906 0 
L 2906 525 
Q 2725 213 2448 61 
Q 2172 -91 1784 -91 
Q 1150 -91 751 415 
Q 353 922 353 1747 
Q 353 2572 751 3078 
Q 1150 3584 1784 3584 
Q 2172 3584 2448 3432 
Q 2725 3281 2906 2969 
z
M 947 1747 
Q 947 1113 1208 752 
Q 1469 391 1925 391 
Q 2381 391 2643 752 
Q 2906 1113 2906 1747 
Q 2906 2381 2643 2742 
Q 2381 3103 1925 3103 
Q 1469 3103 1208 2742 
Q 947 2381 947 1747 
z
" transform="scale(0.015625)"/>
      </defs>
      <use xlink:href="#DejaVuSans-23"/>
      <use xlink:href="#DejaVuSans-20" x="83.789062"/>
      <use xlink:href="#DejaVuSans-75" x="115.576172"/>
      <use xlink:href="#DejaVuSans-6e" x="178.955078"/>
      <use xlink:href="#DejaVuSans-69" x="242.333984"/>
      <use xlink:href="#DejaVuSans-71" x="270.117188"/>
      <use xlink:href="#DejaVuSans-75" x="333.59375"/>
      <use xlink:href="#DejaVuSans-65" x="396.972656"/>
      <use xlink:href="#DejaVuSans-20" x="458.496094"/>
      <use xlink:href="#DejaVuSans-43" x="490.283203"/>
      <use xlink:href="#DejaVuSans-44" x="560.107422"/>
      <use xlink:href="#DejaVuSans-52" x="637.109375"/>
      <use xlink:href="#DejaVuSans-33" x="706.591797"/>
      <use xlink:href="#DejaVuSans-20" x="770.214844"/>
      <use xlink:href="#DejaVuSans-61" x="802.001953"/>
      <use xlink:href="#DejaVuSans-6d" x="863.28125"/>
      <use xlink:href="#DejaVuSans-69" x="960.693359"/>
      <use xlink:href="#DejaVuSans-6e" x="988.476562"/>
      <use xlink:href="#DejaVuSans-6f" x="1051.855469"/>
      <use xlink:href="#DejaVuSans-20" x="1113.037109"/>
      <use xlink:href="#DejaVuSans-61" x="1144.824219"/>
      <use xlink:href="#DejaVuSans-63" x="1206.103516"/>
      <use xlink:href="#DejaVuSans-69" x="1261.083984"/>
      <use xlink:href="#DejaVuSans-64" x="1288.867188"/>
     </g>
     <!-- sequences per cell -->
     <g transform="translate(37.274 236.11875) rotate(-90) scale(0.16 -0.16)">
      <defs>
       <path id="DejaVuSans-73" d="M 2834 3397 
L 2834 2853 
Q 2591 2978 2328 3040 
Q 2066 3103 1784 3103 
Q 1356 3103 1142 2972 
Q 928 2841 928 2578 
Q 928 2378 1081 2264 
Q 1234 2150 1697 2047 
L 1894 2003 
Q 2506 1872 2764 1633 
Q 3022 1394 3022 966 
Q 3022 478 2636 193 
Q 2250 -91 1575 -91 
Q 1294 -91 989 -36 
Q 684 19 347 128 
L 347 722 
Q 666 556 975 473 
Q 1284 391 1588 391 
Q 1994 391 2212 530 
Q 2431 669 2431 922 
Q 2431 1156 2273 1281 
Q 2116 1406 1581 1522 
L 1381 1569 
Q 847 1681 609 1914 
Q 372 2147 372 2553 
Q 372 3047 722 3315 
Q 1072 3584 1716 3584 
Q 2034 3584 2315 3537 
Q 2597 3491 2834 3397 
z
" transform="scale(0.015625)"/>
       <path id="DejaVuSans-70" d="M 1159 525 
L 1159 -1331 
L 581 -1331 
L 581 3500 
L 1159 3500 
L 1159 2969 
Q 1341 3281 1617 3432 
Q 1894 3584 2278 3584 
Q 2916 3584 3314 3078 
Q 3713 2572 3713 1747 
Q 3713 922 3314 415 
Q 2916 -91 2278 -91 
Q 1894 -91 1617 61 
Q 1341 213 1159 525 
z
M 3116 1747 
Q 3116 2381 2855 2742 
Q 2594 3103 2138 3103 
Q 1681 3103 1420 2742 
Q 1159 2381 1159 1747 
Q 1159 1113 1420 752 
Q 1681 391 2138 391 
Q 2594 391 2855 752 
Q 3116 1113 3116 1747 
z
" transform="scale(0.015625)"/>
       <path id="DejaVuSans-6c" d="M 603 4863 
L 1178 4863 
L 1178 0 
L 603 0 
L 603 4863 
z
" transform="scale(0.015625)"/>
      </defs>
      <use xlink:href="#DejaVuSans-73"/>
      <use xlink:href="#DejaVuSans-65" x="52.099609"/>
      <use xlink:href="#DejaVuSans-71" x="113.623047"/>
      <use xlink:href="#DejaVuSans-75" x="177.099609"/>
      <use xlink:href="#DejaVuSans-65" x="240.478516"/>
      <use xlink:href="#DejaVuSans-6e" x="302.001953"/>
      <use xlink:href="#DejaVuSans-63" x="365.380859"/>
      <use xlink:href="#DejaVuSans-65" x="420.361328"/>
      <use xlink:href="#DejaVuSans-73" x="481.884766"/>
      <use xlink:href="#DejaVuSans-20" x="533.984375"/>
      <use xlink:href="#DejaVuSans-70" x="565.771484"/>
      <use xlink:href="#DejaVuSans-65" x="629.248047"/>
      <use xlink:href="#DejaVuSans-72" x="690.771484"/>
      <use xlink:href="#DejaVuSans-20" x="731.884766"/>
      <use xlink:href="#DejaVuSans-63" x="763.671875"/>
      <use xlink:href="#DejaVuSans-65" x="818.652344"/>
      <use xlink:href="#DejaVuSans-6c" x="880.175781"/>
      <use xlink:href="#DejaVuSans-6c" x="907.958984"/>
     </g>
    </g>
   </g>
   <g id="patch_3">
    <path d="M 82.517088 297.1575 
L 98.882096 297.1575 
L 98.882096 74.842203 
L 82.517088 74.842203 
z
" clip-path="url(#p59fbb18981)" style="fill: #1f77b4"/>
   </g>
   <g id="patch_4">
    <path d="M 98.882096 297.1575 
L 115.247103 297.1575 
L 115.247103 91.730896 
L 98.882096 91.730896 
z
" clip-path="url(#p59fbb18981)" style="fill: #ff7f0e"/>
   </g>
   <g id="patch_5">
    <path d="M 129.274253 297.1575 
L 145.63926 297.1575 
L 145.63926 79.300463 
L 129.274253 79.300463 
z
" clip-path="url(#p59fbb18981)" style="fill: #1f77b4"/>
   </g>
   <g id="patch_6">
    <path d="M 145.63926 297.1575 
L 162.004268 297.1575 
L 162.004268 92.205224 
L 145.63926 92.205224 
z
" clip-path="url(#p59fbb18981)" style="fill: #ff7f0e"/>
   </g>
   <g id="patch_7">
    <path d="M 176.031417 297.1575 
L 192.396425 297.1575 
L 192.396425 53.672019 
L 176.031417 53.672019 
z
" clip-path="url(#p59fbb18981)" style="fill: #1f77b4"/>
   </g>
   <g id="patch_8">
    <path d="M 192.396425 297.1575 
L 208.761432 297.1575 
L 208.761432 69.39139 
L 192.396425 69.39139 
z
" clip-path="url(#p59fbb18981)" style="fill: #ff7f0e"/>
   </g>
   <g id="patch_9">
    <path d="M 222.788581 297.1575 
L 239.153589 297.1575 
L 239.153589 41.797183 
L 222.788581 41.797183 
z
" clip-path="url(#p59fbb18981)" style="fill: #1f77b4"/>
   </g>
   <g id="patch_10">
    <path d="M 239.153589 297.1575 
L 255.518597 297.1575 
L 255.518597 62.963534 
L 239.153589 62.963534 
z
" clip-path="url(#p59fbb18981)" style="fill: #ff7f0e"/>
   </g>
   <g id="patch_11">
    <path d="M 269.545746 297.1575 
L 285.910753 297.1575 
L 285.910753 45.061297 
L 269.545746 45.061297 
z
" clip-path="url(#p59fbb18981)" style="fill: #1f77b4"/>
   </g>
   <g id="patch_12">
    <path d="M 285.910753 297.1575 
L 302.275761 297.1575 
L 302.275761 65.173946 
L 285.910753 65.173946 
z
" clip-path="url(#p59fbb18981)" style="fill: #ff7f0e"/>
   </g>
   <g id="patch_13">
    <path d="M 316.30291 297.1575 
L 332.667918 297.1575 
L 332.667918 46.490101 
L 316.30291 46.490101 
z
" clip-path="url(#p59fbb18981)" style="fill: #1f77b4"/>
   </g>
   <g id="patch_14">
    <path d="M 332.667918 297.1575 
L 349.032925 297.1575 
L 349.032925 68.073328 
L 332.667918 68.073328 
z
" clip-path="url(#p59fbb18981)" style="fill: #ff7f0e"/>
   </g>
   <g id="patch_15">
    <path d="M 363.060075 297.1575 
L 379.425082 297.1575 
L 379.425082 62.041666 
L 363.060075 62.041666 
z
" clip-path="url(#p59fbb18981)" style="fill: #1f77b4"/>
   </g>
   <g id="patch_16">
    <path d="M 379.425082 297.1575 
L 395.79009 297.1575 
L 395.79009 80.453277 
L 379.425082 80.453277 
z
" clip-path="url(#p59fbb18981)" style="fill: #ff7f0e"/>
   </g>
   <g id="patch_17">
    <path d="M 409.817239 297.1575 
L 426.182247 297.1575 
L 426.182247 62.870218 
L 409.817239 62.870218 
z
" clip-path="url(#p59fbb18981)" style="fill: #1f77b4"/>
   </g>
   <g id="patch_18">
    <path d="M 426.182247 297.1575 
L 442.547254 297.1575 
L 442.547254 79.443595 
L 426.182247 79.443595 
z
" clip-path="url(#p59fbb18981)" style="fill: #ff7f0e"/>
   </g>
   <g id="patch_19">
    <path d="M 456.574403 297.1575 
L 472.939411 297.1575 
L 472.939411 38.300357 
L 456.574403 38.300357 
z
" clip-path="url(#p59fbb18981)" style="fill: #1f77b4"/>
   </g>
   <g id="patch_20">
    <path d="M 472.939411 297.1575 
L 489.304419 297.1575 
L 489.304419 61.054683 
L 472.939411 61.054683 
z
" clip-path="url(#p59fbb18981)" style="fill: #ff7f0e"/>
   </g>
   <g id="patch_21">
    <path d="M 503.331568 297.1575 
L 519.696575 297.1575 
L 519.696575 43.180087 
L 503.331568 43.180087 
z
" clip-path="url(#p59fbb18981)" style="fill: #1f77b4"/>
   </g>
   <g id="patch_22">
    <path d="M 519.696575 297.1575 
L 536.061583 297.1575 
L 536.061583 62.526484 
L 519.696575 62.526484 
z
" clip-path="url(#p59fbb18981)" style="fill: #ff7f0e"/>
   </g>
   <g id="patch_23">
    <path d="M 550.088732 297.1575 
L 566.45374 297.1575 
L 566.45374 47.508279 
L 550.088732 47.508279 
z
" clip-path="url(#p59fbb18981)" style="fill: #1f77b4"/>
   </g>
   <g id="patch_24">
    <path d="M 566.45374 297.1575 
L 582.818747 297.1575 
L 582.818747 68.931641 
L 566.45374 68.931641 
z
" clip-path="url(#p59fbb18981)" style="fill: #ff7f0e"/>
   </g>
   <g id="patch_25">
    <path d="M 596.845897 297.1575 
L 613.210904 297.1575 
L 613.210904 48.141341 
L 596.845897 48.141341 
z
" clip-path="url(#p59fbb18981)" style="fill: #1f77b4"/>
   </g>
   <g id="patch_26">
    <path d="M 613.210904 297.1575 
L 629.575912 297.1575 
L 629.575912 68.921278 
L 613.210904 68.921278 
z
" clip-path="url(#p59fbb18981)" style="fill: #ff7f0e"/>
   </g>
   <g id="patch_27">
    <path d="M 77.0465 297.1575 
L 77.0465 25.3575 
" style="fill: none; stroke: #000000; stroke-width: 0.8; stroke-linejoin: miter; stroke-linecap: square"/>
   </g>
   <g id="patch_28">
    <path d="M 635.0465 297.1575 
L 635.0465 25.3575 
" style="fill: none; stroke: #000000; stroke-width: 0.8; stroke-linejoin: miter; stroke-linecap: square"/>
   </g>
   <g id="patch_29">
    <path d="M 77.0465 297.1575 
L 635.0465 297.1575 
" style="fill: none; stroke: #000000; stroke-width: 0.8; stroke-linejoin: miter; stroke-linecap: square"/>
   </g>
   <g id="patch_30">
    <path d="M 77.0465 25.3575 
L 635.0465 25.3575 
" style="fill: none; stroke: #000000; stroke-width: 0.8; stroke-linejoin: miter; stroke-linecap: square"/>
   </g>
   <g id="text_22">
    <!-- Unique CDR3 amino acid sequences detected in the IP for each donor -->
    <g transform="translate(76.53775 19.3575) scale(0.16 -0.16)">
     <defs>
      <path id="DejaVuSans-55" d="M 556 4666 
L 1191 4666 
L 1191 1831 
Q 1191 1081 1462 751 
Q 1734 422 2344 422 
Q 2950 422 3222 751 
Q 3494 1081 3494 1831 
L 3494 4666 
L 4128 4666 
L 4128 1753 
Q 4128 841 3676 375 
Q 3225 -91 2344 -91 
Q 1459 -91 1007 375 
Q 556 841 556 1753 
L 556 4666 
z
" transform="scale(0.015625)"/>
      <path id="DejaVuSans-74" d="M 1172 4494 
L 1172 3500 
L 2356 3500 
L 2356 3053 
L 1172 3053 
L 1172 1153 
Q 1172 725 1289 603 
Q 1406 481 1766 481 
L 2356 481 
L 2356 0 
L 1766 0 
Q 1100 0 847 248 
Q 594 497 594 1153 
L 594 3053 
L 172 3053 
L 172 3500 
L 594 3500 
L 594 4494 
L 1172 4494 
z
" transform="scale(0.015625)"/>
      <path id="DejaVuSans-68" d="M 3513 2113 
L 3513 0 
L 2938 0 
L 2938 2094 
Q 2938 2591 2744 2837 
Q 2550 3084 2163 3084 
Q 1697 3084 1428 2787 
Q 1159 2491 1159 1978 
L 1159 0 
L 581 0 
L 581 4863 
L 1159 4863 
L 1159 2956 
Q 1366 3272 1645 3428 
Q 1925 3584 2291 3584 
Q 2894 3584 3203 3211 
Q 3513 2838 3513 2113 
z
" transform="scale(0.015625)"/>
      <path id="DejaVuSans-49" d="M 628 4666 
L 1259 4666 
L 1259 0 
L 628 0 
L 628 4666 
z
" transform="scale(0.015625)"/>
      <path id="DejaVuSans-50" d="M 1259 4147 
L 1259 2394 
L 2053 2394 
Q 2494 2394 2734 2622 
Q 2975 2850 2975 3272 
Q 2975 3691 2734 3919 
Q 2494 4147 2053 4147 
L 1259 4147 
z
M 628 4666 
L 2053 4666 
Q 2838 4666 3239 4311 
Q 3641 3956 3641 3272 
Q 3641 2581 3239 2228 
Q 2838 1875 2053 1875 
L 1259 1875 
L 1259 0 
L 628 0 
L 628 4666 
z
" transform="scale(0.015625)"/>
      <path id="DejaVuSans-66" d="M 2375 4863 
L 2375 4384 
L 1825 4384 
Q 1516 4384 1395 4259 
Q 1275 4134 1275 3809 
L 1275 3500 
L 2222 3500 
L 2222 3053 
L 1275 3053 
L 1275 0 
L 697 0 
L 697 3053 
L 147 3053 
L 147 3500 
L 697 3500 
L 697 3744 
Q 697 4328 969 4595 
Q 1241 4863 1831 4863 
L 2375 4863 
z
" transform="scale(0.015625)"/>
     </defs>
     <use xlink:href="#DejaVuSans-55"/>
     <use xlink:href="#DejaVuSans-6e" x="73.193359"/>
     <use xlink:href="#DejaVuSans-69" x="136.572266"/>
     <use xlink:href="#DejaVuSans-71" x="164.355469"/>
     <use xlink:href="#DejaVuSans-75" x="227.832031"/>
     <use xlink:href="#DejaVuSans-65" x="291.210938"/>
     <use xlink:href="#DejaVuSans-20" x="352.734375"/>
     <use xlink:href="#DejaVuSans-43" x="384.521484"/>
     <use xlink:href="#DejaVuSans-44" x="454.345703"/>
     <use xlink:href="#DejaVuSans-52" x="531.347656"/>
     <use xlink:href="#DejaVuSans-33" x="600.830078"/>
     <use xlink:href="#DejaVuSans-20" x="664.453125"/>
     <use xlink:href="#DejaVuSans-61" x="696.240234"/>
     <use xlink:href="#DejaVuSans-6d" x="757.519531"/>
     <use xlink:href="#DejaVuSans-69" x="854.931641"/>
     <use xlink:href="#DejaVuSans-6e" x="882.714844"/>
     <use xlink:href="#DejaVuSans-6f" x="946.09375"/>
     <use xlink:href="#DejaVuSans-20" x="1007.275391"/>
     <use xlink:href="#DejaVuSans-61" x="1039.0625"/>
     <use xlink:href="#DejaVuSans-63" x="1100.341797"/>
     <use xlink:href="#DejaVuSans-69" x="1155.322266"/>
     <use xlink:href="#DejaVuSans-64" x="1183.105469"/>
     <use xlink:href="#DejaVuSans-20" x="1246.582031"/>
     <use xlink:href="#DejaVuSans-73" x="1278.369141"/>
     <use xlink:href="#DejaVuSans-65" x="1330.46875"/>
     <use xlink:href="#DejaVuSans-71" x="1391.992188"/>
     <use xlink:href="#DejaVuSans-75" x="1455.46875"/>
     <use xlink:href="#DejaVuSans-65" x="1518.847656"/>
     <use xlink:href="#DejaVuSans-6e" x="1580.371094"/>
     <use xlink:href="#DejaVuSans-63" x="1643.75"/>
     <use xlink:href="#DejaVuSans-65" x="1698.730469"/>
     <use xlink:href="#DejaVuSans-73" x="1760.253906"/>
     <use xlink:href="#DejaVuSans-20" x="1812.353516"/>
     <use xlink:href="#DejaVuSans-64" x="1844.140625"/>
     <use xlink:href="#DejaVuSans-65" x="1907.617188"/>
     <use xlink:href="#DejaVuSans-74" x="1969.140625"/>
     <use xlink:href="#DejaVuSans-65" x="2008.349609"/>
     <use xlink:href="#DejaVuSans-63" x="2069.873047"/>
     <use xlink:href="#DejaVuSans-74" x="2124.853516"/>
     <use xlink:href="#DejaVuSans-65" x="2164.0625"/>
     <use xlink:href="#DejaVuSans-64" x="2225.585938"/>
     <use xlink:href="#DejaVuSans-20" x="2289.0625"/>
     <use xlink:href="#DejaVuSans-69" x="2320.849609"/>
     <use xlink:href="#DejaVuSans-6e" x="2348.632812"/>
     <use xlink:href="#DejaVuSans-20" x="2412.011719"/>
     <use xlink:href="#DejaVuSans-74" x="2443.798828"/>
     <use xlink:href="#DejaVuSans-68" x="2483.007812"/>
     <use xlink:href="#DejaVuSans-65" x="2546.386719"/>
     <use xlink:href="#DejaVuSans-20" x="2607.910156"/>
     <use xlink:href="#DejaVuSans-49" x="2639.697266"/>
     <use xlink:href="#DejaVuSans-50" x="2669.189453"/>
     <use xlink:href="#DejaVuSans-20" x="2729.492188"/>
     <use xlink:href="#DejaVuSans-66" x="2761.279297"/>
     <use xlink:href="#DejaVuSans-6f" x="2796.484375"/>
     <use xlink:href="#DejaVuSans-72" x="2857.666016"/>
     <use xlink:href="#DejaVuSans-20" x="2898.779297"/>
     <use xlink:href="#DejaVuSans-65" x="2930.566406"/>
     <use xlink:href="#DejaVuSans-61" x="2992.089844"/>
     <use xlink:href="#DejaVuSans-63" x="3053.369141"/>
     <use xlink:href="#DejaVuSans-68" x="3108.349609"/>
     <use xlink:href="#DejaVuSans-20" x="3171.728516"/>
     <use xlink:href="#DejaVuSans-64" x="3203.515625"/>
     <use xlink:href="#DejaVuSans-6f" x="3266.992188"/>
     <use xlink:href="#DejaVuSans-6e" x="3328.173828"/>
     <use xlink:href="#DejaVuSans-6f" x="3391.552734"/>
     <use xlink:href="#DejaVuSans-72" x="3452.734375"/>
    </g>
   </g>
   <g id="legend_1">
    <g id="patch_31">
     <path d="M 513.6865 289.1575 
L 623.8465 289.1575 
Q 627.0465 289.1575 627.0465 285.9575 
L 627.0465 240.4875 
Q 627.0465 237.2875 623.8465 237.2875 
L 513.6865 237.2875 
Q 510.4865 237.2875 510.4865 240.4875 
L 510.4865 285.9575 
Q 510.4865 289.1575 513.6865 289.1575 
z
" style="fill: #ffffff; opacity: 0.8; stroke: #cccccc; stroke-linejoin: miter"/>
    </g>
    <g id="patch_32">
     <path d="M 516.8865 255.845 
L 548.8865 255.845 
L 548.8865 244.645 
L 516.8865 244.645 
z
" style="fill: #1f77b4"/>
    </g>
    <g id="text_23">
     <!-- α chain -->
     <g transform="translate(561.6865 255.845) scale(0.16 -0.16)">
      <defs>
       <path id="DejaVuSans-3b1" d="M 2644 1628 
L 2506 2350 
Q 2366 3091 1809 3091 
Q 1391 3091 1200 2747 
Q 959 2316 959 1747 
Q 959 1059 1194 731 
Q 1431 397 1809 397 
Q 2228 397 2453 1063 
L 2644 1628 
z
M 2966 2584 
L 3275 3500 
L 3788 3500 
L 3147 1603 
L 3272 919 
Q 3300 766 3409 638 
Q 3538 488 3638 488 
L 3913 488 
L 3913 0 
L 3569 0 
Q 3275 0 3013 263 
Q 2884 394 2831 669 
Q 2688 322 2394 50 
Q 2256 -78 1809 -78 
Q 1075 -78 719 397 
Q 353 888 353 1747 
Q 353 2666 750 3097 
Q 1191 3578 1809 3578 
Q 2781 3578 2966 2584 
z
" transform="scale(0.015625)"/>
      </defs>
      <use xlink:href="#DejaVuSans-3b1"/>
      <use xlink:href="#DejaVuSans-20" x="65.917969"/>
      <use xlink:href="#DejaVuSans-63" x="97.705078"/>
      <use xlink:href="#DejaVuSans-68" x="152.685547"/>
      <use xlink:href="#DejaVuSans-61" x="216.064453"/>
      <use xlink:href="#DejaVuSans-69" x="277.34375"/>
      <use xlink:href="#DejaVuSans-6e" x="305.126953"/>
     </g>
    </g>
    <g id="patch_33">
     <path d="M 516.8865 279.43 
L 548.8865 279.43 
L 548.8865 268.23 
L 516.8865 268.23 
z
" style="fill: #ff7f0e"/>
    </g>
    <g id="text_24">
     <!-- β chain -->
     <g transform="translate(561.6865 279.43) scale(0.16 -0.16)">
      <defs>
       <path id="DejaVuSans-3b2" d="M 1178 216 
L 1178 -1331 
L 600 -1331 
L 600 3478 
Q 600 4903 1931 4903 
Q 3288 4903 3288 3700 
Q 3288 2844 2750 2531 
Q 3625 2250 3625 1416 
Q 3625 -66 2119 -66 
Q 1456 -66 1178 216 
z
M 1178 966 
Q 1525 425 2141 425 
Q 3041 425 3041 1406 
Q 3041 2288 1591 2219 
L 1591 2750 
Q 2725 2750 2725 3750 
Q 2725 4434 1994 4434 
Q 1178 4434 1178 3459 
L 1178 966 
z
" transform="scale(0.015625)"/>
      </defs>
      <use xlink:href="#DejaVuSans-3b2"/>
      <use xlink:href="#DejaVuSans-20" x="63.818359"/>
      <use xlink:href="#DejaVuSans-63" x="95.605469"/>
      <use xlink:href="#DejaVuSans-68" x="150.585938"/>
      <use xlink:href="#DejaVuSans-61" x="213.964844"/>
      <use xlink:href="#DejaVuSans-69" x="275.244141"/>
      <use xlink:href="#DejaVuSans-6e" x="303.027344"/>
     </g>
    </g>
   </g>
  </g>
 </g>
 <defs>
  <clipPath id="p59fbb18981">
   <rect x="77.0465" y="25.3575" width="558" height="271.8"/>
  </clipPath>
 </defs>
</svg>
