<?xml version="1.0" encoding="utf-8" standalone="no"?>
<!DOCTYPE svg PUBLIC "-//W3C//DTD SVG 1.1//EN"
  "http://www.w3.org/Graphics/SVG/1.1/DTD/svg11.dtd">
<svg xmlns:xlink="http://www.w3.org/1999/xlink" width="1063.235205pt" height="343.825312pt" viewBox="0 0 1063.235205 343.825312" xmlns="http://www.w3.org/2000/svg" version="1.1">
 <metadata>
  <rdf:RDF xmlns:dc="http://purl.org/dc/elements/1.1/" xmlns:cc="http://creativecommons.org/ns#" xmlns:rdf="http://www.w3.org/1999/02/22-rdf-syntax-ns#">
   <cc:Work>
    <dc:type rdf:resource="http://purl.org/dc/dcmitype/StillImage"/>
    <dc:date>2023-09-27T18:58:04.172784</dc:date>
    <dc:format>image/svg+xml</dc:format>
    <dc:creator>
     <cc:Agent>
      <dc:title>Matplotlib v3.7.2, https://matplotlib.org/</dc:title>
     </cc:Agent>
    </dc:creator>
   </cc:Work>
  </rdf:RDF>
 </metadata>
 <defs>
  <style type="text/css">*{stroke-linejoin: round; stroke-linecap: butt}</style>
 </defs>
 <g id="figure_1">
  <g id="patch_1">
   <path d="M 0 343.825312 
L 1063.235205 343.825312 
L 1063.235205 0 
L 0 0 
L 0 343.825312 
z
" style="fill: none"/>
  </g>
  <g id="axes_1">
   <g id="patch_2">
    <path d="M 48.8975 302.397812 
L 879.6276 302.397812 
L 879.6276 37.837812 
L 48.8975 37.837812 
z
" style="fill: #ffffff"/>
   </g>
   <g id="patch_3">
    <path d="M 57.041913 302.397812 
L 105.769168 302.397812 
L 105.769168 116.495653 
L 57.041913 116.495653 
z
" clip-path="url(#pa331b6b124)" style="fill: #ffdead"/>
   </g>
   <g id="patch_4">
    <path d="M 126.652278 302.397812 
L 175.379534 302.397812 
L 175.379534 261.050915 
L 126.652278 261.050915 
z
" clip-path="url(#pa331b6b124)" style="fill: #ffdead"/>
   </g>
   <g id="patch_5">
    <path d="M 196.262643 302.397812 
L 244.989899 302.397812 
L 244.989899 221.491114 
L 196.262643 221.491114 
z
" clip-path="url(#pa331b6b124)" style="fill: #ffdead"/>
   </g>
   <g id="patch_6">
    <path d="M 265.873009 302.397812 
L 314.600265 302.397812 
L 314.600265 142.464248 
L 265.873009 142.464248 
z
" clip-path="url(#pa331b6b124)" style="fill: #ffdead"/>
   </g>
   <g id="patch_7">
    <path d="M 335.483374 302.397812 
L 384.21063 302.397812 
L 384.21063 265.350053 
L 335.483374 265.350053 
z
" clip-path="url(#pa331b6b124)" style="fill: #ffdead"/>
   </g>
   <g id="patch_8">
    <path d="M 405.093739 302.397812 
L 453.820995 302.397812 
L 453.820995 262.793022 
L 405.093739 262.793022 
z
" clip-path="url(#pa331b6b124)" style="fill: #ffdead"/>
   </g>
   <g id="patch_9">
    <path d="M 474.704105 302.397812 
L 523.431361 302.397812 
L 523.431361 203.30888 
L 474.704105 203.30888 
z
" clip-path="url(#pa331b6b124)" style="fill: #ffdead"/>
   </g>
   <g id="patch_10">
    <path d="M 544.31447 302.397812 
L 593.041726 302.397812 
L 593.041726 200.810568 
L 544.31447 200.810568 
z
" clip-path="url(#pa331b6b124)" style="fill: #ffdead"/>
   </g>
   <g id="patch_11">
    <path d="M 613.924835 302.397812 
L 662.652091 302.397812 
L 662.652091 164.931126 
L 613.924835 164.931126 
z
" clip-path="url(#pa331b6b124)" style="fill: #ffdead"/>
   </g>
   <g id="patch_12">
    <path d="M 683.535201 302.397812 
L 732.262457 302.397812 
L 732.262457 215.45907 
L 683.535201 215.45907 
z
" clip-path="url(#pa331b6b124)" style="fill: #ffdead"/>
   </g>
   <g id="patch_13">
    <path d="M 753.145566 302.397812 
L 801.872822 302.397812 
L 801.872822 214.309022 
L 753.145566 214.309022 
z
" clip-path="url(#pa331b6b124)" style="fill: #ffdead"/>
   </g>
   <g id="patch_14">
    <path d="M 822.755932 302.397812 
L 871.483187 302.397812 
L 871.483187 166.969639 
L 822.755932 166.969639 
z
" clip-path="url(#pa331b6b124)" style="fill: #ffdead"/>
   </g>
   <g id="patch_15">
    <path d="M 57.041913 116.495653 
L 105.769168 116.495653 
L 105.769168 112.636093 
L 57.041913 112.636093 
z
" clip-path="url(#pa331b6b124)" style="fill: #ff8c00"/>
   </g>
   <g id="patch_16">
    <path d="M 126.652278 261.050915 
L 175.379534 261.050915 
L 175.379534 261.050915 
L 126.652278 261.050915 
z
" clip-path="url(#pa331b6b124)" style="fill: #ff8c00"/>
   </g>
   <g id="patch_17">
    <path d="M 196.262643 221.491114 
L 244.989899 221.491114 
L 244.989899 220.510427 
L 196.262643 220.510427 
z
" clip-path="url(#pa331b6b124)" style="fill: #ff8c00"/>
   </g>
   <g id="patch_18">
    <path d="M 265.873009 142.464248 
L 314.600265 142.464248 
L 314.600265 138.590424 
L 265.873009 138.590424 
z
" clip-path="url(#pa331b6b124)" style="fill: #ff8c00"/>
   </g>
   <g id="patch_19">
    <path d="M 335.483374 265.350053 
L 384.21063 265.350053 
L 384.21063 264.375112 
L 335.483374 264.375112 
z
" clip-path="url(#pa331b6b124)" style="fill: #ff8c00"/>
   </g>
   <g id="patch_20">
    <path d="M 405.093739 262.793022 
L 453.820995 262.793022 
L 453.820995 262.793022 
L 405.093739 262.793022 
z
" clip-path="url(#pa331b6b124)" style="fill: #ff8c00"/>
   </g>
   <g id="patch_21">
    <path d="M 474.704105 203.30888 
L 523.431361 203.30888 
L 523.431361 194.368525 
L 474.704105 194.368525 
z
" clip-path="url(#pa331b6b124)" style="fill: #ff8c00"/>
   </g>
   <g id="patch_22">
    <path d="M 544.31447 200.810568 
L 593.041726 200.810568 
L 593.041726 200.810568 
L 544.31447 200.810568 
z
" clip-path="url(#pa331b6b124)" style="fill: #ff8c00"/>
   </g>
   <g id="patch_23">
    <path d="M 613.924835 164.931126 
L 662.652091 164.931126 
L 662.652091 163.956185 
L 613.924835 163.956185 
z
" clip-path="url(#pa331b6b124)" style="fill: #ff8c00"/>
   </g>
   <g id="patch_24">
    <path d="M 683.535201 215.45907 
L 732.262457 215.45907 
L 732.262457 213.795171 
L 683.535201 213.795171 
z
" clip-path="url(#pa331b6b124)" style="fill: #ff8c00"/>
   </g>
   <g id="patch_25">
    <path d="M 753.145566 214.309022 
L 801.872822 214.309022 
L 801.872822 212.473839 
L 753.145566 212.473839 
z
" clip-path="url(#pa331b6b124)" style="fill: #ff8c00"/>
   </g>
   <g id="patch_26">
    <path d="M 822.755932 166.969639 
L 871.483187 166.969639 
L 871.483187 166.260591 
L 822.755932 166.260591 
z
" clip-path="url(#pa331b6b124)" style="fill: #ff8c00"/>
   </g>
   <g id="patch_27">
    <path d="M 57.041913 112.636093 
L 105.769168 112.636093 
L 105.769168 93.981551 
L 57.041913 93.981551 
z
" clip-path="url(#pa331b6b124)" style="fill: #9acd32"/>
   </g>
   <g id="patch_28">
    <path d="M 126.652278 261.050915 
L 175.379534 261.050915 
L 175.379534 203.16526 
L 126.652278 203.16526 
z
" clip-path="url(#pa331b6b124)" style="fill: #9acd32"/>
   </g>
   <g id="patch_29">
    <path d="M 196.262643 220.510427 
L 244.989899 220.510427 
L 244.989899 171.476064 
L 196.262643 171.476064 
z
" clip-path="url(#pa331b6b124)" style="fill: #9acd32"/>
   </g>
   <g id="patch_30">
    <path d="M 265.873009 138.590424 
L 314.600265 138.590424 
L 314.600265 117.007694 
L 265.873009 117.007694 
z
" clip-path="url(#pa331b6b124)" style="fill: #9acd32"/>
   </g>
   <g id="patch_31">
    <path d="M 335.483374 264.375112 
L 384.21063 264.375112 
L 384.21063 233.664469 
L 335.483374 233.664469 
z
" clip-path="url(#pa331b6b124)" style="fill: #9acd32"/>
   </g>
   <g id="patch_32">
    <path d="M 405.093739 262.793022 
L 453.820995 262.793022 
L 453.820995 191.803303 
L 405.093739 191.803303 
z
" clip-path="url(#pa331b6b124)" style="fill: #9acd32"/>
   </g>
   <g id="patch_33">
    <path d="M 474.704105 194.368525 
L 523.431361 194.368525 
L 523.431361 180.212963 
L 474.704105 180.212963 
z
" clip-path="url(#pa331b6b124)" style="fill: #9acd32"/>
   </g>
   <g id="patch_34">
    <path d="M 544.31447 200.810568 
L 593.041726 200.810568 
L 593.041726 162.135221 
L 544.31447 162.135221 
z
" clip-path="url(#pa331b6b124)" style="fill: #9acd32"/>
   </g>
   <g id="patch_35">
    <path d="M 613.924835 163.956185 
L 662.652091 163.956185 
L 662.652091 157.131598 
L 613.924835 157.131598 
z
" clip-path="url(#pa331b6b124)" style="fill: #9acd32"/>
   </g>
   <g id="patch_36">
    <path d="M 683.535201 213.795171 
L 732.262457 213.795171 
L 732.262457 159.718441 
L 683.535201 159.718441 
z
" clip-path="url(#pa331b6b124)" style="fill: #9acd32"/>
   </g>
   <g id="patch_37">
    <path d="M 753.145566 212.473839 
L 801.872822 212.473839 
L 801.872822 196.568919 
L 753.145566 196.568919 
z
" clip-path="url(#pa331b6b124)" style="fill: #9acd32"/>
   </g>
   <g id="patch_38">
    <path d="M 822.755932 166.260591 
L 871.483187 166.260591 
L 871.483187 153.497727 
L 822.755932 153.497727 
z
" clip-path="url(#pa331b6b124)" style="fill: #9acd32"/>
   </g>
   <g id="patch_39">
    <path d="M 57.041913 93.981551 
L 105.769168 93.981551 
L 105.769168 90.765251 
L 57.041913 90.765251 
z
" clip-path="url(#pa331b6b124)" style="fill: #008000"/>
   </g>
   <g id="patch_40">
    <path d="M 126.652278 203.16526 
L 175.379534 203.16526 
L 175.379534 171.591266 
L 126.652278 171.591266 
z
" clip-path="url(#pa331b6b124)" style="fill: #008000"/>
   </g>
   <g id="patch_41">
    <path d="M 196.262643 171.476064 
L 244.989899 171.476064 
L 244.989899 165.101597 
L 196.262643 165.101597 
z
" clip-path="url(#pa331b6b124)" style="fill: #008000"/>
   </g>
   <g id="patch_42">
    <path d="M 265.873009 117.007694 
L 314.600265 117.007694 
L 314.600265 100.405594 
L 265.873009 100.405594 
z
" clip-path="url(#pa331b6b124)" style="fill: #008000"/>
   </g>
   <g id="patch_43">
    <path d="M 335.483374 233.664469 
L 384.21063 233.664469 
L 384.21063 211.728296 
L 335.483374 211.728296 
z
" clip-path="url(#pa331b6b124)" style="fill: #008000"/>
   </g>
   <g id="patch_44">
    <path d="M 405.093739 191.803303 
L 453.820995 191.803303 
L 453.820995 179.84714 
L 405.093739 179.84714 
z
" clip-path="url(#pa331b6b124)" style="fill: #008000"/>
   </g>
   <g id="patch_45">
    <path d="M 474.704105 180.212963 
L 523.431361 180.212963 
L 523.431361 172.017638 
L 474.704105 172.017638 
z
" clip-path="url(#pa331b6b124)" style="fill: #008000"/>
   </g>
   <g id="patch_46">
    <path d="M 544.31447 162.135221 
L 593.041726 162.135221 
L 593.041726 151.306124 
L 544.31447 151.306124 
z
" clip-path="url(#pa331b6b124)" style="fill: #008000"/>
   </g>
   <g id="patch_47">
    <path d="M 613.924835 157.131598 
L 662.652091 157.131598 
L 662.652091 154.206775 
L 613.924835 154.206775 
z
" clip-path="url(#pa331b6b124)" style="fill: #008000"/>
   </g>
   <g id="patch_48">
    <path d="M 683.535201 159.718441 
L 732.262457 159.718441 
L 732.262457 151.398945 
L 683.535201 151.398945 
z
" clip-path="url(#pa331b6b124)" style="fill: #008000"/>
   </g>
   <g id="patch_49">
    <path d="M 753.145566 196.568919 
L 801.872822 196.568919 
L 801.872822 184.946092 
L 753.145566 184.946092 
z
" clip-path="url(#pa331b6b124)" style="fill: #008000"/>
   </g>
   <g id="patch_50">
    <path d="M 822.755932 153.497727 
L 871.483187 153.497727 
L 871.483187 135.062478 
L 822.755932 135.062478 
z
" clip-path="url(#pa331b6b124)" style="fill: #008000"/>
   </g>
   <g id="patch_51">
    <path d="M 57.041913 90.765251 
L 105.769168 90.765251 
L 105.769168 90.765251 
L 57.041913 90.765251 
z
" clip-path="url(#pa331b6b124)" style="fill: #add8e6"/>
   </g>
   <g id="patch_52">
    <path d="M 126.652278 171.591266 
L 175.379534 171.591266 
L 175.379534 171.591266 
L 126.652278 171.591266 
z
" clip-path="url(#pa331b6b124)" style="fill: #add8e6"/>
   </g>
   <g id="patch_53">
    <path d="M 196.262643 165.101597 
L 244.989899 165.101597 
L 244.989899 164.611254 
L 196.262643 164.611254 
z
" clip-path="url(#pa331b6b124)" style="fill: #add8e6"/>
   </g>
   <g id="patch_54">
    <path d="M 265.873009 100.405594 
L 314.600265 100.405594 
L 314.600265 100.405594 
L 265.873009 100.405594 
z
" clip-path="url(#pa331b6b124)" style="fill: #add8e6"/>
   </g>
   <g id="patch_55">
    <path d="M 335.483374 211.728296 
L 384.21063 211.728296 
L 384.21063 211.240825 
L 335.483374 211.240825 
z
" clip-path="url(#pa331b6b124)" style="fill: #add8e6"/>
   </g>
   <g id="patch_56">
    <path d="M 405.093739 179.84714 
L 453.820995 179.84714 
L 453.820995 179.84714 
L 405.093739 179.84714 
z
" clip-path="url(#pa331b6b124)" style="fill: #add8e6"/>
   </g>
   <g id="patch_57">
    <path d="M 474.704105 172.017638 
L 523.431361 172.017638 
L 523.431361 171.272608 
L 474.704105 171.272608 
z
" clip-path="url(#pa331b6b124)" style="fill: #add8e6"/>
   </g>
   <g id="patch_58">
    <path d="M 544.31447 151.306124 
L 593.041726 151.306124 
L 593.041726 151.306124 
L 544.31447 151.306124 
z
" clip-path="url(#pa331b6b124)" style="fill: #add8e6"/>
   </g>
   <g id="patch_59">
    <path d="M 613.924835 154.206775 
L 662.652091 154.206775 
L 662.652091 153.231834 
L 613.924835 153.231834 
z
" clip-path="url(#pa331b6b124)" style="fill: #add8e6"/>
   </g>
   <g id="patch_60">
    <path d="M 683.535201 151.398945 
L 732.262457 151.398945 
L 732.262457 150.98297 
L 683.535201 150.98297 
z
" clip-path="url(#pa331b6b124)" style="fill: #add8e6"/>
   </g>
   <g id="patch_61">
    <path d="M 753.145566 184.946092 
L 801.872822 184.946092 
L 801.872822 184.946092 
L 753.145566 184.946092 
z
" clip-path="url(#pa331b6b124)" style="fill: #add8e6"/>
   </g>
   <g id="patch_62">
    <path d="M 822.755932 135.062478 
L 871.483187 135.062478 
L 871.483187 134.35343 
L 822.755932 134.35343 
z
" clip-path="url(#pa331b6b124)" style="fill: #add8e6"/>
   </g>
   <g id="patch_63">
    <path d="M 57.041913 90.765251 
L 105.769168 90.765251 
L 105.769168 88.19221 
L 57.041913 88.19221 
z
" clip-path="url(#pa331b6b124)" style="fill: #6495ed"/>
   </g>
   <g id="patch_64">
    <path d="M 126.652278 171.591266 
L 175.379534 171.591266 
L 175.379534 168.584219 
L 126.652278 168.584219 
z
" clip-path="url(#pa331b6b124)" style="fill: #6495ed"/>
   </g>
   <g id="patch_65">
    <path d="M 196.262643 164.611254 
L 244.989899 164.611254 
L 244.989899 163.630566 
L 196.262643 163.630566 
z
" clip-path="url(#pa331b6b124)" style="fill: #6495ed"/>
   </g>
   <g id="patch_66">
    <path d="M 265.873009 100.405594 
L 314.600265 100.405594 
L 314.600265 99.852191 
L 265.873009 99.852191 
z
" clip-path="url(#pa331b6b124)" style="fill: #6495ed"/>
   </g>
   <g id="patch_67">
    <path d="M 335.483374 211.240825 
L 384.21063 211.240825 
L 384.21063 210.265884 
L 335.483374 210.265884 
z
" clip-path="url(#pa331b6b124)" style="fill: #6495ed"/>
   </g>
   <g id="patch_68">
    <path d="M 405.093739 179.84714 
L 453.820995 179.84714 
L 453.820995 178.35262 
L 405.093739 178.35262 
z
" clip-path="url(#pa331b6b124)" style="fill: #6495ed"/>
   </g>
   <g id="patch_69">
    <path d="M 474.704105 171.272608 
L 523.431361 171.272608 
L 523.431361 167.54746 
L 474.704105 167.54746 
z
" clip-path="url(#pa331b6b124)" style="fill: #6495ed"/>
   </g>
   <g id="patch_70">
    <path d="M 544.31447 151.306124 
L 593.041726 151.306124 
L 593.041726 150.790452 
L 544.31447 150.790452 
z
" clip-path="url(#pa331b6b124)" style="fill: #6495ed"/>
   </g>
   <g id="patch_71">
    <path d="M 613.924835 153.231834 
L 662.652091 153.231834 
L 662.652091 153.231834 
L 613.924835 153.231834 
z
" clip-path="url(#pa331b6b124)" style="fill: #6495ed"/>
   </g>
   <g id="patch_72">
    <path d="M 683.535201 150.98297 
L 732.262457 150.98297 
L 732.262457 149.735045 
L 683.535201 149.735045 
z
" clip-path="url(#pa331b6b124)" style="fill: #6495ed"/>
   </g>
   <g id="patch_73">
    <path d="M 753.145566 184.946092 
L 801.872822 184.946092 
L 801.872822 184.334364 
L 753.145566 184.334364 
z
" clip-path="url(#pa331b6b124)" style="fill: #6495ed"/>
   </g>
   <g id="patch_74">
    <path d="M 822.755932 134.35343 
L 871.483187 134.35343 
L 871.483187 133.644382 
L 822.755932 133.644382 
z
" clip-path="url(#pa331b6b124)" style="fill: #6495ed"/>
   </g>
   <g id="patch_75">
    <path d="M 57.041913 88.19221 
L 105.769168 88.19221 
L 105.769168 88.19221 
L 57.041913 88.19221 
z
" clip-path="url(#pa331b6b124)" style="fill: #00008b"/>
   </g>
   <g id="patch_76">
    <path d="M 126.652278 168.584219 
L 175.379534 168.584219 
L 175.379534 168.584219 
L 126.652278 168.584219 
z
" clip-path="url(#pa331b6b124)" style="fill: #00008b"/>
   </g>
   <g id="patch_77">
    <path d="M 196.262643 163.630566 
L 244.989899 163.630566 
L 244.989899 163.140223 
L 196.262643 163.140223 
z
" clip-path="url(#pa331b6b124)" style="fill: #00008b"/>
   </g>
   <g id="patch_78">
    <path d="M 265.873009 99.852191 
L 314.600265 99.852191 
L 314.600265 99.298787 
L 265.873009 99.298787 
z
" clip-path="url(#pa331b6b124)" style="fill: #00008b"/>
   </g>
   <g id="patch_79">
    <path d="M 335.483374 210.265884 
L 384.21063 210.265884 
L 384.21063 209.778414 
L 335.483374 209.778414 
z
" clip-path="url(#pa331b6b124)" style="fill: #00008b"/>
   </g>
   <g id="patch_80">
    <path d="M 405.093739 178.35262 
L 453.820995 178.35262 
L 453.820995 176.858099 
L 405.093739 176.858099 
z
" clip-path="url(#pa331b6b124)" style="fill: #00008b"/>
   </g>
   <g id="patch_81">
    <path d="M 474.704105 167.54746 
L 523.431361 167.54746 
L 523.431361 167.54746 
L 474.704105 167.54746 
z
" clip-path="url(#pa331b6b124)" style="fill: #00008b"/>
   </g>
   <g id="patch_82">
    <path d="M 544.31447 150.790452 
L 593.041726 150.790452 
L 593.041726 150.790452 
L 544.31447 150.790452 
z
" clip-path="url(#pa331b6b124)" style="fill: #00008b"/>
   </g>
   <g id="patch_83">
    <path d="M 613.924835 153.231834 
L 662.652091 153.231834 
L 662.652091 152.256893 
L 613.924835 152.256893 
z
" clip-path="url(#pa331b6b124)" style="fill: #00008b"/>
   </g>
   <g id="patch_84">
    <path d="M 683.535201 149.735045 
L 732.262457 149.735045 
L 732.262457 148.487121 
L 683.535201 148.487121 
z
" clip-path="url(#pa331b6b124)" style="fill: #00008b"/>
   </g>
   <g id="patch_85">
    <path d="M 753.145566 184.334364 
L 801.872822 184.334364 
L 801.872822 183.722637 
L 753.145566 183.722637 
z
" clip-path="url(#pa331b6b124)" style="fill: #00008b"/>
   </g>
   <g id="patch_86">
    <path d="M 822.755932 133.644382 
L 871.483187 133.644382 
L 871.483187 133.644382 
L 822.755932 133.644382 
z
" clip-path="url(#pa331b6b124)" style="fill: #00008b"/>
   </g>
   <g id="patch_87">
    <path d="M 57.041913 88.19221 
L 105.769168 88.19221 
L 105.769168 88.19221 
L 57.041913 88.19221 
z
" clip-path="url(#pa331b6b124)" style="fill: #dda0dd"/>
   </g>
   <g id="patch_88">
    <path d="M 126.652278 168.584219 
L 175.379534 168.584219 
L 175.379534 165.577171 
L 126.652278 165.577171 
z
" clip-path="url(#pa331b6b124)" style="fill: #dda0dd"/>
   </g>
   <g id="patch_89">
    <path d="M 196.262643 163.140223 
L 244.989899 163.140223 
L 244.989899 161.178848 
L 196.262643 161.178848 
z
" clip-path="url(#pa331b6b124)" style="fill: #dda0dd"/>
   </g>
   <g id="patch_90">
    <path d="M 265.873009 99.298787 
L 314.600265 99.298787 
L 314.600265 99.298787 
L 265.873009 99.298787 
z
" clip-path="url(#pa331b6b124)" style="fill: #dda0dd"/>
   </g>
   <g id="patch_91">
    <path d="M 335.483374 209.778414 
L 384.21063 209.778414 
L 384.21063 208.803473 
L 335.483374 208.803473 
z
" clip-path="url(#pa331b6b124)" style="fill: #dda0dd"/>
   </g>
   <g id="patch_92">
    <path d="M 405.093739 176.858099 
L 453.820995 176.858099 
L 453.820995 174.616319 
L 405.093739 174.616319 
z
" clip-path="url(#pa331b6b124)" style="fill: #dda0dd"/>
   </g>
   <g id="patch_93">
    <path d="M 474.704105 167.54746 
L 523.431361 167.54746 
L 523.431361 166.057401 
L 474.704105 166.057401 
z
" clip-path="url(#pa331b6b124)" style="fill: #dda0dd"/>
   </g>
   <g id="patch_94">
    <path d="M 544.31447 150.790452 
L 593.041726 150.790452 
L 593.041726 150.274781 
L 544.31447 150.274781 
z
" clip-path="url(#pa331b6b124)" style="fill: #dda0dd"/>
   </g>
   <g id="patch_95">
    <path d="M 613.924835 152.256893 
L 662.652091 152.256893 
L 662.652091 152.256893 
L 613.924835 152.256893 
z
" clip-path="url(#pa331b6b124)" style="fill: #dda0dd"/>
   </g>
   <g id="patch_96">
    <path d="M 683.535201 148.487121 
L 732.262457 148.487121 
L 732.262457 147.655171 
L 683.535201 147.655171 
z
" clip-path="url(#pa331b6b124)" style="fill: #dda0dd"/>
   </g>
   <g id="patch_97">
    <path d="M 753.145566 183.722637 
L 801.872822 183.722637 
L 801.872822 183.722637 
L 753.145566 183.722637 
z
" clip-path="url(#pa331b6b124)" style="fill: #dda0dd"/>
   </g>
   <g id="patch_98">
    <path d="M 822.755932 133.644382 
L 871.483187 133.644382 
L 871.483187 133.644382 
L 822.755932 133.644382 
z
" clip-path="url(#pa331b6b124)" style="fill: #dda0dd"/>
   </g>
   <g id="patch_99">
    <path d="M 57.041913 88.19221 
L 105.769168 88.19221 
L 105.769168 87.54895 
L 57.041913 87.54895 
z
" clip-path="url(#pa331b6b124)" style="fill: #da70d6"/>
   </g>
   <g id="patch_100">
    <path d="M 126.652278 165.577171 
L 175.379534 165.577171 
L 175.379534 138.513748 
L 126.652278 138.513748 
z
" clip-path="url(#pa331b6b124)" style="fill: #da70d6"/>
   </g>
   <g id="patch_101">
    <path d="M 196.262643 161.178848 
L 244.989899 161.178848 
L 244.989899 151.371976 
L 196.262643 151.371976 
z
" clip-path="url(#pa331b6b124)" style="fill: #da70d6"/>
   </g>
   <g id="patch_102">
    <path d="M 265.873009 99.298787 
L 314.600265 99.298787 
L 314.600265 95.978367 
L 265.873009 95.978367 
z
" clip-path="url(#pa331b6b124)" style="fill: #da70d6"/>
   </g>
   <g id="patch_103">
    <path d="M 335.483374 208.803473 
L 384.21063 208.803473 
L 384.21063 192.229475 
L 335.483374 192.229475 
z
" clip-path="url(#pa331b6b124)" style="fill: #da70d6"/>
   </g>
   <g id="patch_104">
    <path d="M 405.093739 174.616319 
L 453.820995 174.616319 
L 453.820995 157.429334 
L 405.093739 157.429334 
z
" clip-path="url(#pa331b6b124)" style="fill: #da70d6"/>
   </g>
   <g id="patch_105">
    <path d="M 474.704105 166.057401 
L 523.431361 166.057401 
L 523.431361 164.567342 
L 474.704105 164.567342 
z
" clip-path="url(#pa331b6b124)" style="fill: #da70d6"/>
   </g>
   <g id="patch_106">
    <path d="M 544.31447 150.274781 
L 593.041726 150.274781 
L 593.041726 145.118068 
L 544.31447 145.118068 
z
" clip-path="url(#pa331b6b124)" style="fill: #da70d6"/>
   </g>
   <g id="patch_107">
    <path d="M 613.924835 152.256893 
L 662.652091 152.256893 
L 662.652091 148.357129 
L 613.924835 148.357129 
z
" clip-path="url(#pa331b6b124)" style="fill: #da70d6"/>
   </g>
   <g id="patch_108">
    <path d="M 683.535201 147.655171 
L 732.262457 147.655171 
L 732.262457 140.999574 
L 683.535201 140.999574 
z
" clip-path="url(#pa331b6b124)" style="fill: #da70d6"/>
   </g>
   <g id="patch_109">
    <path d="M 753.145566 183.722637 
L 801.872822 183.722637 
L 801.872822 176.993632 
L 753.145566 176.993632 
z
" clip-path="url(#pa331b6b124)" style="fill: #da70d6"/>
   </g>
   <g id="patch_110">
    <path d="M 822.755932 133.644382 
L 871.483187 133.644382 
L 871.483187 120.881517 
L 822.755932 120.881517 
z
" clip-path="url(#pa331b6b124)" style="fill: #da70d6"/>
   </g>
   <g id="patch_111">
    <path d="M 57.041913 87.54895 
L 105.769168 87.54895 
L 105.769168 52.812907 
L 57.041913 52.812907 
z
" clip-path="url(#pa331b6b124)" style="fill: #9932cc"/>
   </g>
   <g id="patch_112">
    <path d="M 126.652278 138.513748 
L 175.379534 138.513748 
L 175.379534 52.812907 
L 126.652278 52.812907 
z
" clip-path="url(#pa331b6b124)" style="fill: #9932cc"/>
   </g>
   <g id="patch_113">
    <path d="M 196.262643 151.371976 
L 244.989899 151.371976 
L 244.989899 52.812907 
L 196.262643 52.812907 
z
" clip-path="url(#pa331b6b124)" style="fill: #9932cc"/>
   </g>
   <g id="patch_114">
    <path d="M 265.873009 95.978367 
L 314.600265 95.978367 
L 314.600265 52.812907 
L 265.873009 52.812907 
z
" clip-path="url(#pa331b6b124)" style="fill: #9932cc"/>
   </g>
   <g id="patch_115">
    <path d="M 335.483374 192.229475 
L 384.21063 192.229475 
L 384.21063 52.812907 
L 335.483374 52.812907 
z
" clip-path="url(#pa331b6b124)" style="fill: #9932cc"/>
   </g>
   <g id="patch_116">
    <path d="M 405.093739 157.429334 
L 453.820995 157.429334 
L 453.820995 52.812907 
L 405.093739 52.812907 
z
" clip-path="url(#pa331b6b124)" style="fill: #9932cc"/>
   </g>
   <g id="patch_117">
    <path d="M 474.704105 164.567342 
L 523.431361 164.567342 
L 523.431361 52.812907 
L 474.704105 52.812907 
z
" clip-path="url(#pa331b6b124)" style="fill: #9932cc"/>
   </g>
   <g id="patch_118">
    <path d="M 544.31447 145.118068 
L 593.041726 145.118068 
L 593.041726 52.812907 
L 544.31447 52.812907 
z
" clip-path="url(#pa331b6b124)" style="fill: #9932cc"/>
   </g>
   <g id="patch_119">
    <path d="M 613.924835 148.357129 
L 662.652091 148.357129 
L 662.652091 52.812907 
L 613.924835 52.812907 
z
" clip-path="url(#pa331b6b124)" style="fill: #9932cc"/>
   </g>
   <g id="patch_120">
    <path d="M 683.535201 140.999574 
L 732.262457 140.999574 
L 732.262457 52.812907 
L 683.535201 52.812907 
z
" clip-path="url(#pa331b6b124)" style="fill: #9932cc"/>
   </g>
   <g id="patch_121">
    <path d="M 753.145566 176.993632 
L 801.872822 176.993632 
L 801.872822 52.812907 
L 753.145566 52.812907 
z
" clip-path="url(#pa331b6b124)" style="fill: #9932cc"/>
   </g>
   <g id="patch_122">
    <path d="M 822.755932 120.881517 
L 871.483187 120.881517 
L 871.483187 52.812907 
L 822.755932 52.812907 
z
" clip-path="url(#pa331b6b124)" style="fill: #9932cc"/>
   </g>
   <g id="matplotlib.axis_1">
    <g id="xtick_1">
     <g id="line2d_1">
      <defs>
       <path id="mc7f89af86e" d="M 0 0 
L 0 3.5 
" style="stroke: #000000; stroke-width: 0.8"/>
      </defs>
      <g>
       <use xlink:href="#mc7f89af86e" x="81.405541" y="302.397812" style="stroke: #000000; stroke-width: 0.8"/>
      </g>
     </g>
     <g id="text_1">
      <!-- 375 -->
      <g transform="translate(69.953041 318.515937) scale(0.12 -0.12)">
       <defs>
        <path id="DejaVuSans-33" d="M 2597 2516 
Q 3050 2419 3304 2112 
Q 3559 1806 3559 1356 
Q 3559 666 3084 287 
Q 2609 -91 1734 -91 
Q 1441 -91 1130 -33 
Q 819 25 488 141 
L 488 750 
Q 750 597 1062 519 
Q 1375 441 1716 441 
Q 2309 441 2620 675 
Q 2931 909 2931 1356 
Q 2931 1769 2642 2001 
Q 2353 2234 1838 2234 
L 1294 2234 
L 1294 2753 
L 1863 2753 
Q 2328 2753 2575 2939 
Q 2822 3125 2822 3475 
Q 2822 3834 2567 4026 
Q 2313 4219 1838 4219 
Q 1578 4219 1281 4162 
Q 984 4106 628 3988 
L 628 4550 
Q 988 4650 1302 4700 
Q 1616 4750 1894 4750 
Q 2613 4750 3031 4423 
Q 3450 4097 3450 3541 
Q 3450 3153 3228 2886 
Q 3006 2619 2597 2516 
z
" transform="scale(0.015625)"/>
        <path id="DejaVuSans-37" d="M 525 4666 
L 3525 4666 
L 3525 4397 
L 1831 0 
L 1172 0 
L 2766 4134 
L 525 4134 
L 525 4666 
z
" transform="scale(0.015625)"/>
        <path id="DejaVuSans-35" d="M 691 4666 
L 3169 4666 
L 3169 4134 
L 1269 4134 
L 1269 2991 
Q 1406 3038 1543 3061 
Q 1681 3084 1819 3084 
Q 2600 3084 3056 2656 
Q 3513 2228 3513 1497 
Q 3513 744 3044 326 
Q 2575 -91 1722 -91 
Q 1428 -91 1123 -41 
Q 819 9 494 109 
L 494 744 
Q 775 591 1075 516 
Q 1375 441 1709 441 
Q 2250 441 2565 725 
Q 2881 1009 2881 1497 
Q 2881 1984 2565 2268 
Q 2250 2553 1709 2553 
Q 1456 2553 1204 2497 
Q 953 2441 691 2322 
L 691 4666 
z
" transform="scale(0.015625)"/>
       </defs>
       <use xlink:href="#DejaVuSans-33"/>
       <use xlink:href="#DejaVuSans-37" x="63.623047"/>
       <use xlink:href="#DejaVuSans-35" x="127.246094"/>
      </g>
     </g>
    </g>
    <g id="xtick_2">
     <g id="line2d_2">
      <g>
       <use xlink:href="#mc7f89af86e" x="151.015906" y="302.397812" style="stroke: #000000; stroke-width: 0.8"/>
      </g>
     </g>
     <g id="text_2">
      <!-- 376 -->
      <g transform="translate(139.563406 318.515937) scale(0.12 -0.12)">
       <defs>
        <path id="DejaVuSans-36" d="M 2113 2584 
Q 1688 2584 1439 2293 
Q 1191 2003 1191 1497 
Q 1191 994 1439 701 
Q 1688 409 2113 409 
Q 2538 409 2786 701 
Q 3034 994 3034 1497 
Q 3034 2003 2786 2293 
Q 2538 2584 2113 2584 
z
M 3366 4563 
L 3366 3988 
Q 3128 4100 2886 4159 
Q 2644 4219 2406 4219 
Q 1781 4219 1451 3797 
Q 1122 3375 1075 2522 
Q 1259 2794 1537 2939 
Q 1816 3084 2150 3084 
Q 2853 3084 3261 2657 
Q 3669 2231 3669 1497 
Q 3669 778 3244 343 
Q 2819 -91 2113 -91 
Q 1303 -91 875 529 
Q 447 1150 447 2328 
Q 447 3434 972 4092 
Q 1497 4750 2381 4750 
Q 2619 4750 2861 4703 
Q 3103 4656 3366 4563 
z
" transform="scale(0.015625)"/>
       </defs>
       <use xlink:href="#DejaVuSans-33"/>
       <use xlink:href="#DejaVuSans-37" x="63.623047"/>
       <use xlink:href="#DejaVuSans-36" x="127.246094"/>
      </g>
     </g>
    </g>
    <g id="xtick_3">
     <g id="line2d_3">
      <g>
       <use xlink:href="#mc7f89af86e" x="220.626271" y="302.397812" style="stroke: #000000; stroke-width: 0.8"/>
      </g>
     </g>
     <g id="text_3">
      <!-- 388 -->
      <g transform="translate(209.173771 318.515937) scale(0.12 -0.12)">
       <defs>
        <path id="DejaVuSans-38" d="M 2034 2216 
Q 1584 2216 1326 1975 
Q 1069 1734 1069 1313 
Q 1069 891 1326 650 
Q 1584 409 2034 409 
Q 2484 409 2743 651 
Q 3003 894 3003 1313 
Q 3003 1734 2745 1975 
Q 2488 2216 2034 2216 
z
M 1403 2484 
Q 997 2584 770 2862 
Q 544 3141 544 3541 
Q 544 4100 942 4425 
Q 1341 4750 2034 4750 
Q 2731 4750 3128 4425 
Q 3525 4100 3525 3541 
Q 3525 3141 3298 2862 
Q 3072 2584 2669 2484 
Q 3125 2378 3379 2068 
Q 3634 1759 3634 1313 
Q 3634 634 3220 271 
Q 2806 -91 2034 -91 
Q 1263 -91 848 271 
Q 434 634 434 1313 
Q 434 1759 690 2068 
Q 947 2378 1403 2484 
z
M 1172 3481 
Q 1172 3119 1398 2916 
Q 1625 2713 2034 2713 
Q 2441 2713 2670 2916 
Q 2900 3119 2900 3481 
Q 2900 3844 2670 4047 
Q 2441 4250 2034 4250 
Q 1625 4250 1398 4047 
Q 1172 3844 1172 3481 
z
" transform="scale(0.015625)"/>
       </defs>
       <use xlink:href="#DejaVuSans-33"/>
       <use xlink:href="#DejaVuSans-38" x="63.623047"/>
       <use xlink:href="#DejaVuSans-38" x="127.246094"/>
      </g>
     </g>
    </g>
    <g id="xtick_4">
     <g id="line2d_4">
      <g>
       <use xlink:href="#mc7f89af86e" x="290.236637" y="302.397812" style="stroke: #000000; stroke-width: 0.8"/>
      </g>
     </g>
     <g id="text_4">
      <!-- 393 -->
      <g transform="translate(278.784137 318.515937) scale(0.12 -0.12)">
       <defs>
        <path id="DejaVuSans-39" d="M 703 97 
L 703 672 
Q 941 559 1184 500 
Q 1428 441 1663 441 
Q 2288 441 2617 861 
Q 2947 1281 2994 2138 
Q 2813 1869 2534 1725 
Q 2256 1581 1919 1581 
Q 1219 1581 811 2004 
Q 403 2428 403 3163 
Q 403 3881 828 4315 
Q 1253 4750 1959 4750 
Q 2769 4750 3195 4129 
Q 3622 3509 3622 2328 
Q 3622 1225 3098 567 
Q 2575 -91 1691 -91 
Q 1453 -91 1209 -44 
Q 966 3 703 97 
z
M 1959 2075 
Q 2384 2075 2632 2365 
Q 2881 2656 2881 3163 
Q 2881 3666 2632 3958 
Q 2384 4250 1959 4250 
Q 1534 4250 1286 3958 
Q 1038 3666 1038 3163 
Q 1038 2656 1286 2365 
Q 1534 2075 1959 2075 
z
" transform="scale(0.015625)"/>
       </defs>
       <use xlink:href="#DejaVuSans-33"/>
       <use xlink:href="#DejaVuSans-39" x="63.623047"/>
       <use xlink:href="#DejaVuSans-33" x="127.246094"/>
      </g>
     </g>
    </g>
    <g id="xtick_5">
     <g id="line2d_5">
      <g>
       <use xlink:href="#mc7f89af86e" x="359.847002" y="302.397812" style="stroke: #000000; stroke-width: 0.8"/>
      </g>
     </g>
     <g id="text_5">
      <!-- 394 -->
      <g transform="translate(348.394502 318.515937) scale(0.12 -0.12)">
       <defs>
        <path id="DejaVuSans-34" d="M 2419 4116 
L 825 1625 
L 2419 1625 
L 2419 4116 
z
M 2253 4666 
L 3047 4666 
L 3047 1625 
L 3713 1625 
L 3713 1100 
L 3047 1100 
L 3047 0 
L 2419 0 
L 2419 1100 
L 313 1100 
L 313 1709 
L 2253 4666 
z
" transform="scale(0.015625)"/>
       </defs>
       <use xlink:href="#DejaVuSans-33"/>
       <use xlink:href="#DejaVuSans-39" x="63.623047"/>
       <use xlink:href="#DejaVuSans-34" x="127.246094"/>
      </g>
     </g>
    </g>
    <g id="xtick_6">
     <g id="line2d_6">
      <g>
       <use xlink:href="#mc7f89af86e" x="429.457367" y="302.397812" style="stroke: #000000; stroke-width: 0.8"/>
      </g>
     </g>
     <g id="text_6">
      <!-- 403 -->
      <g transform="translate(418.004867 318.515937) scale(0.12 -0.12)">
       <defs>
        <path id="DejaVuSans-30" d="M 2034 4250 
Q 1547 4250 1301 3770 
Q 1056 3291 1056 2328 
Q 1056 1369 1301 889 
Q 1547 409 2034 409 
Q 2525 409 2770 889 
Q 3016 1369 3016 2328 
Q 3016 3291 2770 3770 
Q 2525 4250 2034 4250 
z
M 2034 4750 
Q 2819 4750 3233 4129 
Q 3647 3509 3647 2328 
Q 3647 1150 3233 529 
Q 2819 -91 2034 -91 
Q 1250 -91 836 529 
Q 422 1150 422 2328 
Q 422 3509 836 4129 
Q 1250 4750 2034 4750 
z
" transform="scale(0.015625)"/>
       </defs>
       <use xlink:href="#DejaVuSans-34"/>
       <use xlink:href="#DejaVuSans-30" x="63.623047"/>
       <use xlink:href="#DejaVuSans-33" x="127.246094"/>
      </g>
     </g>
    </g>
    <g id="xtick_7">
     <g id="line2d_7">
      <g>
       <use xlink:href="#mc7f89af86e" x="499.067733" y="302.397812" style="stroke: #000000; stroke-width: 0.8"/>
      </g>
     </g>
     <g id="text_7">
      <!-- 406 -->
      <g transform="translate(487.615233 318.515937) scale(0.12 -0.12)">
       <use xlink:href="#DejaVuSans-34"/>
       <use xlink:href="#DejaVuSans-30" x="63.623047"/>
       <use xlink:href="#DejaVuSans-36" x="127.246094"/>
      </g>
     </g>
    </g>
    <g id="xtick_8">
     <g id="line2d_8">
      <g>
       <use xlink:href="#mc7f89af86e" x="568.678098" y="302.397812" style="stroke: #000000; stroke-width: 0.8"/>
      </g>
     </g>
     <g id="text_8">
      <!-- 454 -->
      <g transform="translate(557.225598 318.515937) scale(0.12 -0.12)">
       <use xlink:href="#DejaVuSans-34"/>
       <use xlink:href="#DejaVuSans-35" x="63.623047"/>
       <use xlink:href="#DejaVuSans-34" x="127.246094"/>
      </g>
     </g>
    </g>
    <g id="xtick_9">
     <g id="line2d_9">
      <g>
       <use xlink:href="#mc7f89af86e" x="638.288463" y="302.397812" style="stroke: #000000; stroke-width: 0.8"/>
      </g>
     </g>
     <g id="text_9">
      <!-- 455 -->
      <g transform="translate(626.835963 318.515937) scale(0.12 -0.12)">
       <use xlink:href="#DejaVuSans-34"/>
       <use xlink:href="#DejaVuSans-35" x="63.623047"/>
       <use xlink:href="#DejaVuSans-35" x="127.246094"/>
      </g>
     </g>
    </g>
    <g id="xtick_10">
     <g id="line2d_10">
      <g>
       <use xlink:href="#mc7f89af86e" x="707.898829" y="302.397812" style="stroke: #000000; stroke-width: 0.8"/>
      </g>
     </g>
     <g id="text_10">
      <!-- 504 -->
      <g transform="translate(696.446329 318.515937) scale(0.12 -0.12)">
       <use xlink:href="#DejaVuSans-35"/>
       <use xlink:href="#DejaVuSans-30" x="63.623047"/>
       <use xlink:href="#DejaVuSans-34" x="127.246094"/>
      </g>
     </g>
    </g>
    <g id="xtick_11">
     <g id="line2d_11">
      <g>
       <use xlink:href="#mc7f89af86e" x="777.509194" y="302.397812" style="stroke: #000000; stroke-width: 0.8"/>
      </g>
     </g>
     <g id="text_11">
      <!-- 531 -->
      <g transform="translate(766.056694 318.515937) scale(0.12 -0.12)">
       <defs>
        <path id="DejaVuSans-31" d="M 794 531 
L 1825 531 
L 1825 4091 
L 703 3866 
L 703 4441 
L 1819 4666 
L 2450 4666 
L 2450 531 
L 3481 531 
L 3481 0 
L 794 0 
L 794 531 
z
" transform="scale(0.015625)"/>
       </defs>
       <use xlink:href="#DejaVuSans-35"/>
       <use xlink:href="#DejaVuSans-33" x="63.623047"/>
       <use xlink:href="#DejaVuSans-31" x="127.246094"/>
      </g>
     </g>
    </g>
    <g id="xtick_12">
     <g id="line2d_12">
      <g>
       <use xlink:href="#mc7f89af86e" x="847.119559" y="302.397812" style="stroke: #000000; stroke-width: 0.8"/>
      </g>
     </g>
     <g id="text_12">
      <!-- 555 -->
      <g transform="translate(835.667059 318.515937) scale(0.12 -0.12)">
       <use xlink:href="#DejaVuSans-35"/>
       <use xlink:href="#DejaVuSans-35" x="63.623047"/>
       <use xlink:href="#DejaVuSans-35" x="127.246094"/>
      </g>
     </g>
    </g>
    <g id="text_13">
     <!-- Donor -->
     <g transform="translate(446.030988 334.129687) scale(0.12 -0.12)">
      <defs>
       <path id="DejaVuSans-44" d="M 1259 4147 
L 1259 519 
L 2022 519 
Q 2988 519 3436 956 
Q 3884 1394 3884 2338 
Q 3884 3275 3436 3711 
Q 2988 4147 2022 4147 
L 1259 4147 
z
M 628 4666 
L 1925 4666 
Q 3281 4666 3915 4102 
Q 4550 3538 4550 2338 
Q 4550 1131 3912 565 
Q 3275 0 1925 0 
L 628 0 
L 628 4666 
z
" transform="scale(0.015625)"/>
       <path id="DejaVuSans-6f" d="M 1959 3097 
Q 1497 3097 1228 2736 
Q 959 2375 959 1747 
Q 959 1119 1226 758 
Q 1494 397 1959 397 
Q 2419 397 2687 759 
Q 2956 1122 2956 1747 
Q 2956 2369 2687 2733 
Q 2419 3097 1959 3097 
z
M 1959 3584 
Q 2709 3584 3137 3096 
Q 3566 2609 3566 1747 
Q 3566 888 3137 398 
Q 2709 -91 1959 -91 
Q 1206 -91 779 398 
Q 353 888 353 1747 
Q 353 2609 779 3096 
Q 1206 3584 1959 3584 
z
" transform="scale(0.015625)"/>
       <path id="DejaVuSans-6e" d="M 3513 2113 
L 3513 0 
L 2938 0 
L 2938 2094 
Q 2938 2591 2744 2837 
Q 2550 3084 2163 3084 
Q 1697 3084 1428 2787 
Q 1159 2491 1159 1978 
L 1159 0 
L 581 0 
L 581 3500 
L 1159 3500 
L 1159 2956 
Q 1366 3272 1645 3428 
Q 1925 3584 2291 3584 
Q 2894 3584 3203 3211 
Q 3513 2838 3513 2113 
z
" transform="scale(0.015625)"/>
       <path id="DejaVuSans-72" d="M 2631 2963 
Q 2534 3019 2420 3045 
Q 2306 3072 2169 3072 
Q 1681 3072 1420 2755 
Q 1159 2438 1159 1844 
L 1159 0 
L 581 0 
L 581 3500 
L 1159 3500 
L 1159 2956 
Q 1341 3275 1631 3429 
Q 1922 3584 2338 3584 
Q 2397 3584 2469 3576 
Q 2541 3569 2628 3553 
L 2631 2963 
z
" transform="scale(0.015625)"/>
      </defs>
      <use xlink:href="#DejaVuSans-44"/>
      <use xlink:href="#DejaVuSans-6f" x="77.001953"/>
      <use xlink:href="#DejaVuSans-6e" x="138.183594"/>
      <use xlink:href="#DejaVuSans-6f" x="201.5625"/>
      <use xlink:href="#DejaVuSans-72" x="262.744141"/>
     </g>
    </g>
   </g>
   <g id="matplotlib.axis_2">
    <g id="ytick_1">
     <g id="line2d_13">
      <defs>
       <path id="mbe533dcf8e" d="M 0 0 
L -3.5 0 
" style="stroke: #000000; stroke-width: 0.8"/>
      </defs>
      <g>
       <use xlink:href="#mbe533dcf8e" x="48.8975" y="302.397812" style="stroke: #000000; stroke-width: 0.8"/>
      </g>
     </g>
     <g id="text_14">
      <!-- 0.0 -->
      <g transform="translate(22.81375 306.956875) scale(0.12 -0.12)">
       <defs>
        <path id="DejaVuSans-2e" d="M 684 794 
L 1344 794 
L 1344 0 
L 684 0 
L 684 794 
z
" transform="scale(0.015625)"/>
       </defs>
       <use xlink:href="#DejaVuSans-30"/>
       <use xlink:href="#DejaVuSans-2e" x="63.623047"/>
       <use xlink:href="#DejaVuSans-30" x="95.410156"/>
      </g>
     </g>
    </g>
    <g id="ytick_2">
     <g id="line2d_14">
      <g>
       <use xlink:href="#mbe533dcf8e" x="48.8975" y="252.480831" style="stroke: #000000; stroke-width: 0.8"/>
      </g>
     </g>
     <g id="text_15">
      <!-- 0.2 -->
      <g transform="translate(22.81375 257.039894) scale(0.12 -0.12)">
       <defs>
        <path id="DejaVuSans-32" d="M 1228 531 
L 3431 531 
L 3431 0 
L 469 0 
L 469 531 
Q 828 903 1448 1529 
Q 2069 2156 2228 2338 
Q 2531 2678 2651 2914 
Q 2772 3150 2772 3378 
Q 2772 3750 2511 3984 
Q 2250 4219 1831 4219 
Q 1534 4219 1204 4116 
Q 875 4013 500 3803 
L 500 4441 
Q 881 4594 1212 4672 
Q 1544 4750 1819 4750 
Q 2544 4750 2975 4387 
Q 3406 4025 3406 3419 
Q 3406 3131 3298 2873 
Q 3191 2616 2906 2266 
Q 2828 2175 2409 1742 
Q 1991 1309 1228 531 
z
" transform="scale(0.015625)"/>
       </defs>
       <use xlink:href="#DejaVuSans-30"/>
       <use xlink:href="#DejaVuSans-2e" x="63.623047"/>
       <use xlink:href="#DejaVuSans-32" x="95.410156"/>
      </g>
     </g>
    </g>
    <g id="ytick_3">
     <g id="line2d_15">
      <g>
       <use xlink:href="#mbe533dcf8e" x="48.8975" y="202.56385" style="stroke: #000000; stroke-width: 0.8"/>
      </g>
     </g>
     <g id="text_16">
      <!-- 0.4 -->
      <g transform="translate(22.81375 207.122913) scale(0.12 -0.12)">
       <use xlink:href="#DejaVuSans-30"/>
       <use xlink:href="#DejaVuSans-2e" x="63.623047"/>
       <use xlink:href="#DejaVuSans-34" x="95.410156"/>
      </g>
     </g>
    </g>
    <g id="ytick_4">
     <g id="line2d_16">
      <g>
       <use xlink:href="#mbe533dcf8e" x="48.8975" y="152.646869" style="stroke: #000000; stroke-width: 0.8"/>
      </g>
     </g>
     <g id="text_17">
      <!-- 0.6 -->
      <g transform="translate(22.81375 157.205932) scale(0.12 -0.12)">
       <use xlink:href="#DejaVuSans-30"/>
       <use xlink:href="#DejaVuSans-2e" x="63.623047"/>
       <use xlink:href="#DejaVuSans-36" x="95.410156"/>
      </g>
     </g>
    </g>
    <g id="ytick_5">
     <g id="line2d_17">
      <g>
       <use xlink:href="#mbe533dcf8e" x="48.8975" y="102.729888" style="stroke: #000000; stroke-width: 0.8"/>
      </g>
     </g>
     <g id="text_18">
      <!-- 0.8 -->
      <g transform="translate(22.81375 107.28895) scale(0.12 -0.12)">
       <use xlink:href="#DejaVuSans-30"/>
       <use xlink:href="#DejaVuSans-2e" x="63.623047"/>
       <use xlink:href="#DejaVuSans-38" x="95.410156"/>
      </g>
     </g>
    </g>
    <g id="ytick_6">
     <g id="line2d_18">
      <g>
       <use xlink:href="#mbe533dcf8e" x="48.8975" y="52.812907" style="stroke: #000000; stroke-width: 0.8"/>
      </g>
     </g>
     <g id="text_19">
      <!-- 1.0 -->
      <g transform="translate(22.81375 57.371969) scale(0.12 -0.12)">
       <use xlink:href="#DejaVuSans-31"/>
       <use xlink:href="#DejaVuSans-2e" x="63.623047"/>
       <use xlink:href="#DejaVuSans-30" x="95.410156"/>
      </g>
     </g>
    </g>
    <g id="text_20">
     <!-- Fraction of cells -->
     <g transform="translate(16.318125 217.116562) rotate(-90) scale(0.12 -0.12)">
      <defs>
       <path id="DejaVuSans-46" d="M 628 4666 
L 3309 4666 
L 3309 4134 
L 1259 4134 
L 1259 2759 
L 3109 2759 
L 3109 2228 
L 1259 2228 
L 1259 0 
L 628 0 
L 628 4666 
z
" transform="scale(0.015625)"/>
       <path id="DejaVuSans-61" d="M 2194 1759 
Q 1497 1759 1228 1600 
Q 959 1441 959 1056 
Q 959 750 1161 570 
Q 1363 391 1709 391 
Q 2188 391 2477 730 
Q 2766 1069 2766 1631 
L 2766 1759 
L 2194 1759 
z
M 3341 1997 
L 3341 0 
L 2766 0 
L 2766 531 
Q 2569 213 2275 61 
Q 1981 -91 1556 -91 
Q 1019 -91 701 211 
Q 384 513 384 1019 
Q 384 1609 779 1909 
Q 1175 2209 1959 2209 
L 2766 2209 
L 2766 2266 
Q 2766 2663 2505 2880 
Q 2244 3097 1772 3097 
Q 1472 3097 1187 3025 
Q 903 2953 641 2809 
L 641 3341 
Q 956 3463 1253 3523 
Q 1550 3584 1831 3584 
Q 2591 3584 2966 3190 
Q 3341 2797 3341 1997 
z
" transform="scale(0.015625)"/>
       <path id="DejaVuSans-63" d="M 3122 3366 
L 3122 2828 
Q 2878 2963 2633 3030 
Q 2388 3097 2138 3097 
Q 1578 3097 1268 2742 
Q 959 2388 959 1747 
Q 959 1106 1268 751 
Q 1578 397 2138 397 
Q 2388 397 2633 464 
Q 2878 531 3122 666 
L 3122 134 
Q 2881 22 2623 -34 
Q 2366 -91 2075 -91 
Q 1284 -91 818 406 
Q 353 903 353 1747 
Q 353 2603 823 3093 
Q 1294 3584 2113 3584 
Q 2378 3584 2631 3529 
Q 2884 3475 3122 3366 
z
" transform="scale(0.015625)"/>
       <path id="DejaVuSans-74" d="M 1172 4494 
L 1172 3500 
L 2356 3500 
L 2356 3053 
L 1172 3053 
L 1172 1153 
Q 1172 725 1289 603 
Q 1406 481 1766 481 
L 2356 481 
L 2356 0 
L 1766 0 
Q 1100 0 847 248 
Q 594 497 594 1153 
L 594 3053 
L 172 3053 
L 172 3500 
L 594 3500 
L 594 4494 
L 1172 4494 
z
" transform="scale(0.015625)"/>
       <path id="DejaVuSans-69" d="M 603 3500 
L 1178 3500 
L 1178 0 
L 603 0 
L 603 3500 
z
M 603 4863 
L 1178 4863 
L 1178 4134 
L 603 4134 
L 603 4863 
z
" transform="scale(0.015625)"/>
       <path id="DejaVuSans-20" transform="scale(0.015625)"/>
       <path id="DejaVuSans-66" d="M 2375 4863 
L 2375 4384 
L 1825 4384 
Q 1516 4384 1395 4259 
Q 1275 4134 1275 3809 
L 1275 3500 
L 2222 3500 
L 2222 3053 
L 1275 3053 
L 1275 0 
L 697 0 
L 697 3053 
L 147 3053 
L 147 3500 
L 697 3500 
L 697 3744 
Q 697 4328 969 4595 
Q 1241 4863 1831 4863 
L 2375 4863 
z
" transform="scale(0.015625)"/>
       <path id="DejaVuSans-65" d="M 3597 1894 
L 3597 1613 
L 953 1613 
Q 991 1019 1311 708 
Q 1631 397 2203 397 
Q 2534 397 2845 478 
Q 3156 559 3463 722 
L 3463 178 
Q 3153 47 2828 -22 
Q 2503 -91 2169 -91 
Q 1331 -91 842 396 
Q 353 884 353 1716 
Q 353 2575 817 3079 
Q 1281 3584 2069 3584 
Q 2775 3584 3186 3129 
Q 3597 2675 3597 1894 
z
M 3022 2063 
Q 3016 2534 2758 2815 
Q 2500 3097 2075 3097 
Q 1594 3097 1305 2825 
Q 1016 2553 972 2059 
L 3022 2063 
z
" transform="scale(0.015625)"/>
       <path id="DejaVuSans-6c" d="M 603 4863 
L 1178 4863 
L 1178 0 
L 603 0 
L 603 4863 
z
" transform="scale(0.015625)"/>
       <path id="DejaVuSans-73" d="M 2834 3397 
L 2834 2853 
Q 2591 2978 2328 3040 
Q 2066 3103 1784 3103 
Q 1356 3103 1142 2972 
Q 928 2841 928 2578 
Q 928 2378 1081 2264 
Q 1234 2150 1697 2047 
L 1894 2003 
Q 2506 1872 2764 1633 
Q 3022 1394 3022 966 
Q 3022 478 2636 193 
Q 2250 -91 1575 -91 
Q 1294 -91 989 -36 
Q 684 19 347 128 
L 347 722 
Q 666 556 975 473 
Q 1284 391 1588 391 
Q 1994 391 2212 530 
Q 2431 669 2431 922 
Q 2431 1156 2273 1281 
Q 2116 1406 1581 1522 
L 1381 1569 
Q 847 1681 609 1914 
Q 372 2147 372 2553 
Q 372 3047 722 3315 
Q 1072 3584 1716 3584 
Q 2034 3584 2315 3537 
Q 2597 3491 2834 3397 
z
" transform="scale(0.015625)"/>
      </defs>
      <use xlink:href="#DejaVuSans-46"/>
      <use xlink:href="#DejaVuSans-72" x="50.269531"/>
      <use xlink:href="#DejaVuSans-61" x="91.382812"/>
      <use xlink:href="#DejaVuSans-63" x="152.662109"/>
      <use xlink:href="#DejaVuSans-74" x="207.642578"/>
      <use xlink:href="#DejaVuSans-69" x="246.851562"/>
      <use xlink:href="#DejaVuSans-6f" x="274.634766"/>
      <use xlink:href="#DejaVuSans-6e" x="335.816406"/>
      <use xlink:href="#DejaVuSans-20" x="399.195312"/>
      <use xlink:href="#DejaVuSans-6f" x="430.982422"/>
      <use xlink:href="#DejaVuSans-66" x="492.164062"/>
      <use xlink:href="#DejaVuSans-20" x="527.369141"/>
      <use xlink:href="#DejaVuSans-63" x="559.15625"/>
      <use xlink:href="#DejaVuSans-65" x="614.136719"/>
      <use xlink:href="#DejaVuSans-6c" x="675.660156"/>
      <use xlink:href="#DejaVuSans-6c" x="703.443359"/>
      <use xlink:href="#DejaVuSans-73" x="731.226562"/>
     </g>
    </g>
   </g>
   <g id="patch_123">
    <path d="M 48.8975 302.397812 
L 48.8975 37.837812 
" style="fill: none; stroke: #000000; stroke-width: 0.8; stroke-linejoin: miter; stroke-linecap: square"/>
   </g>
   <g id="patch_124">
    <path d="M 879.6276 302.397812 
L 879.6276 37.837812 
" style="fill: none; stroke: #000000; stroke-width: 0.8; stroke-linejoin: miter; stroke-linecap: square"/>
   </g>
   <g id="patch_125">
    <path d="M 48.8975 302.397812 
L 879.6276 302.397812 
" style="fill: none; stroke: #000000; stroke-width: 0.8; stroke-linejoin: miter; stroke-linecap: square"/>
   </g>
   <g id="patch_126">
    <path d="M 48.8975 37.837812 
L 879.6276 37.837812 
" style="fill: none; stroke: #000000; stroke-width: 0.8; stroke-linejoin: miter; stroke-linecap: square"/>
   </g>
   <g id="text_21">
    <!-- 388 -->
    <g transform="translate(70.907416 50.317058) scale(0.11 -0.11)">
     <use xlink:href="#DejaVuSans-33"/>
     <use xlink:href="#DejaVuSans-38" x="63.623047"/>
     <use xlink:href="#DejaVuSans-38" x="127.246094"/>
    </g>
   </g>
   <g id="text_22">
    <!-- 332 -->
    <g transform="translate(140.517781 50.317058) scale(0.11 -0.11)">
     <use xlink:href="#DejaVuSans-33"/>
     <use xlink:href="#DejaVuSans-33" x="63.623047"/>
     <use xlink:href="#DejaVuSans-32" x="127.246094"/>
    </g>
   </g>
   <g id="text_23">
    <!-- 509 -->
    <g transform="translate(210.128146 50.317058) scale(0.11 -0.11)">
     <use xlink:href="#DejaVuSans-35"/>
     <use xlink:href="#DejaVuSans-30" x="63.623047"/>
     <use xlink:href="#DejaVuSans-39" x="127.246094"/>
    </g>
   </g>
   <g id="text_24">
    <!-- 451 -->
    <g transform="translate(279.738512 50.317058) scale(0.11 -0.11)">
     <use xlink:href="#DejaVuSans-34"/>
     <use xlink:href="#DejaVuSans-35" x="63.623047"/>
     <use xlink:href="#DejaVuSans-31" x="127.246094"/>
    </g>
   </g>
   <g id="text_25">
    <!-- 512 -->
    <g transform="translate(349.348877 50.317058) scale(0.11 -0.11)">
     <use xlink:href="#DejaVuSans-35"/>
     <use xlink:href="#DejaVuSans-31" x="63.623047"/>
     <use xlink:href="#DejaVuSans-32" x="127.246094"/>
    </g>
   </g>
   <g id="text_26">
    <!-- 334 -->
    <g transform="translate(418.959242 50.317058) scale(0.11 -0.11)">
     <use xlink:href="#DejaVuSans-33"/>
     <use xlink:href="#DejaVuSans-33" x="63.623047"/>
     <use xlink:href="#DejaVuSans-34" x="127.246094"/>
    </g>
   </g>
   <g id="text_27">
    <!-- 335 -->
    <g transform="translate(488.569608 50.317058) scale(0.11 -0.11)">
     <use xlink:href="#DejaVuSans-33"/>
     <use xlink:href="#DejaVuSans-33" x="63.623047"/>
     <use xlink:href="#DejaVuSans-35" x="127.246094"/>
    </g>
   </g>
   <g id="text_28">
    <!-- 484 -->
    <g transform="translate(558.179973 50.317058) scale(0.11 -0.11)">
     <use xlink:href="#DejaVuSans-34"/>
     <use xlink:href="#DejaVuSans-38" x="63.623047"/>
     <use xlink:href="#DejaVuSans-34" x="127.246094"/>
    </g>
   </g>
   <g id="text_29">
    <!-- 256 -->
    <g transform="translate(627.790338 50.317058) scale(0.11 -0.11)">
     <use xlink:href="#DejaVuSans-32"/>
     <use xlink:href="#DejaVuSans-35" x="63.623047"/>
     <use xlink:href="#DejaVuSans-36" x="127.246094"/>
    </g>
   </g>
   <g id="text_30">
    <!-- 600 -->
    <g transform="translate(697.400704 50.317058) scale(0.11 -0.11)">
     <use xlink:href="#DejaVuSans-36"/>
     <use xlink:href="#DejaVuSans-30" x="63.623047"/>
     <use xlink:href="#DejaVuSans-30" x="127.246094"/>
    </g>
   </g>
   <g id="text_31">
    <!-- 408 -->
    <g transform="translate(767.011069 50.317058) scale(0.11 -0.11)">
     <use xlink:href="#DejaVuSans-34"/>
     <use xlink:href="#DejaVuSans-30" x="63.623047"/>
     <use xlink:href="#DejaVuSans-38" x="127.246094"/>
    </g>
   </g>
   <g id="text_32">
    <!-- 352 -->
    <g transform="translate(836.621434 50.317058) scale(0.11 -0.11)">
     <use xlink:href="#DejaVuSans-33"/>
     <use xlink:href="#DejaVuSans-35" x="63.623047"/>
     <use xlink:href="#DejaVuSans-32" x="127.246094"/>
    </g>
   </g>
   <g id="text_33">
    <!-- Fraction of cells occupied by each T cell type in the IP -->
    <g transform="translate(276.2688 17.837812) scale(0.14 -0.14)">
     <defs>
      <path id="DejaVuSans-75" d="M 544 1381 
L 544 3500 
L 1119 3500 
L 1119 1403 
Q 1119 906 1312 657 
Q 1506 409 1894 409 
Q 2359 409 2629 706 
Q 2900 1003 2900 1516 
L 2900 3500 
L 3475 3500 
L 3475 0 
L 2900 0 
L 2900 538 
Q 2691 219 2414 64 
Q 2138 -91 1772 -91 
Q 1169 -91 856 284 
Q 544 659 544 1381 
z
M 1991 3584 
L 1991 3584 
z
" transform="scale(0.015625)"/>
      <path id="DejaVuSans-70" d="M 1159 525 
L 1159 -1331 
L 581 -1331 
L 581 3500 
L 1159 3500 
L 1159 2969 
Q 1341 3281 1617 3432 
Q 1894 3584 2278 3584 
Q 2916 3584 3314 3078 
Q 3713 2572 3713 1747 
Q 3713 922 3314 415 
Q 2916 -91 2278 -91 
Q 1894 -91 1617 61 
Q 1341 213 1159 525 
z
M 3116 1747 
Q 3116 2381 2855 2742 
Q 2594 3103 2138 3103 
Q 1681 3103 1420 2742 
Q 1159 2381 1159 1747 
Q 1159 1113 1420 752 
Q 1681 391 2138 391 
Q 2594 391 2855 752 
Q 3116 1113 3116 1747 
z
" transform="scale(0.015625)"/>
      <path id="DejaVuSans-64" d="M 2906 2969 
L 2906 4863 
L 3481 4863 
L 3481 0 
L 2906 0 
L 2906 525 
Q 2725 213 2448 61 
Q 2172 -91 1784 -91 
Q 1150 -91 751 415 
Q 353 922 353 1747 
Q 353 2572 751 3078 
Q 1150 3584 1784 3584 
Q 2172 3584 2448 3432 
Q 2725 3281 2906 2969 
z
M 947 1747 
Q 947 1113 1208 752 
Q 1469 391 1925 391 
Q 2381 391 2643 752 
Q 2906 1113 2906 1747 
Q 2906 2381 2643 2742 
Q 2381 3103 1925 3103 
Q 1469 3103 1208 2742 
Q 947 2381 947 1747 
z
" transform="scale(0.015625)"/>
      <path id="DejaVuSans-62" d="M 3116 1747 
Q 3116 2381 2855 2742 
Q 2594 3103 2138 3103 
Q 1681 3103 1420 2742 
Q 1159 2381 1159 1747 
Q 1159 1113 1420 752 
Q 1681 391 2138 391 
Q 2594 391 2855 752 
Q 3116 1113 3116 1747 
z
M 1159 2969 
Q 1341 3281 1617 3432 
Q 1894 3584 2278 3584 
Q 2916 3584 3314 3078 
Q 3713 2572 3713 1747 
Q 3713 922 3314 415 
Q 2916 -91 2278 -91 
Q 1894 -91 1617 61 
Q 1341 213 1159 525 
L 1159 0 
L 581 0 
L 581 4863 
L 1159 4863 
L 1159 2969 
z
" transform="scale(0.015625)"/>
      <path id="DejaVuSans-79" d="M 2059 -325 
Q 1816 -950 1584 -1140 
Q 1353 -1331 966 -1331 
L 506 -1331 
L 506 -850 
L 844 -850 
Q 1081 -850 1212 -737 
Q 1344 -625 1503 -206 
L 1606 56 
L 191 3500 
L 800 3500 
L 1894 763 
L 2988 3500 
L 3597 3500 
L 2059 -325 
z
" transform="scale(0.015625)"/>
      <path id="DejaVuSans-68" d="M 3513 2113 
L 3513 0 
L 2938 0 
L 2938 2094 
Q 2938 2591 2744 2837 
Q 2550 3084 2163 3084 
Q 1697 3084 1428 2787 
Q 1159 2491 1159 1978 
L 1159 0 
L 581 0 
L 581 4863 
L 1159 4863 
L 1159 2956 
Q 1366 3272 1645 3428 
Q 1925 3584 2291 3584 
Q 2894 3584 3203 3211 
Q 3513 2838 3513 2113 
z
" transform="scale(0.015625)"/>
      <path id="DejaVuSans-54" d="M -19 4666 
L 3928 4666 
L 3928 4134 
L 2272 4134 
L 2272 0 
L 1638 0 
L 1638 4134 
L -19 4134 
L -19 4666 
z
" transform="scale(0.015625)"/>
      <path id="DejaVuSans-49" d="M 628 4666 
L 1259 4666 
L 1259 0 
L 628 0 
L 628 4666 
z
" transform="scale(0.015625)"/>
      <path id="DejaVuSans-50" d="M 1259 4147 
L 1259 2394 
L 2053 2394 
Q 2494 2394 2734 2622 
Q 2975 2850 2975 3272 
Q 2975 3691 2734 3919 
Q 2494 4147 2053 4147 
L 1259 4147 
z
M 628 4666 
L 2053 4666 
Q 2838 4666 3239 4311 
Q 3641 3956 3641 3272 
Q 3641 2581 3239 2228 
Q 2838 1875 2053 1875 
L 1259 1875 
L 1259 0 
L 628 0 
L 628 4666 
z
" transform="scale(0.015625)"/>
     </defs>
     <use xlink:href="#DejaVuSans-46"/>
     <use xlink:href="#DejaVuSans-72" x="50.269531"/>
     <use xlink:href="#DejaVuSans-61" x="91.382812"/>
     <use xlink:href="#DejaVuSans-63" x="152.662109"/>
     <use xlink:href="#DejaVuSans-74" x="207.642578"/>
     <use xlink:href="#DejaVuSans-69" x="246.851562"/>
     <use xlink:href="#DejaVuSans-6f" x="274.634766"/>
     <use xlink:href="#DejaVuSans-6e" x="335.816406"/>
     <use xlink:href="#DejaVuSans-20" x="399.195312"/>
     <use xlink:href="#DejaVuSans-6f" x="430.982422"/>
     <use xlink:href="#DejaVuSans-66" x="492.164062"/>
     <use xlink:href="#DejaVuSans-20" x="527.369141"/>
     <use xlink:href="#DejaVuSans-63" x="559.15625"/>
     <use xlink:href="#DejaVuSans-65" x="614.136719"/>
     <use xlink:href="#DejaVuSans-6c" x="675.660156"/>
     <use xlink:href="#DejaVuSans-6c" x="703.443359"/>
     <use xlink:href="#DejaVuSans-73" x="731.226562"/>
     <use xlink:href="#DejaVuSans-20" x="783.326172"/>
     <use xlink:href="#DejaVuSans-6f" x="815.113281"/>
     <use xlink:href="#DejaVuSans-63" x="876.294922"/>
     <use xlink:href="#DejaVuSans-63" x="931.275391"/>
     <use xlink:href="#DejaVuSans-75" x="986.255859"/>
     <use xlink:href="#DejaVuSans-70" x="1049.634766"/>
     <use xlink:href="#DejaVuSans-69" x="1113.111328"/>
     <use xlink:href="#DejaVuSans-65" x="1140.894531"/>
     <use xlink:href="#DejaVuSans-64" x="1202.417969"/>
     <use xlink:href="#DejaVuSans-20" x="1265.894531"/>
     <use xlink:href="#DejaVuSans-62" x="1297.681641"/>
     <use xlink:href="#DejaVuSans-79" x="1361.158203"/>
     <use xlink:href="#DejaVuSans-20" x="1420.337891"/>
     <use xlink:href="#DejaVuSans-65" x="1452.125"/>
     <use xlink:href="#DejaVuSans-61" x="1513.648438"/>
     <use xlink:href="#DejaVuSans-63" x="1574.927734"/>
     <use xlink:href="#DejaVuSans-68" x="1629.908203"/>
     <use xlink:href="#DejaVuSans-20" x="1693.287109"/>
     <use xlink:href="#DejaVuSans-54" x="1725.074219"/>
     <use xlink:href="#DejaVuSans-20" x="1786.158203"/>
     <use xlink:href="#DejaVuSans-63" x="1817.945312"/>
     <use xlink:href="#DejaVuSans-65" x="1872.925781"/>
     <use xlink:href="#DejaVuSans-6c" x="1934.449219"/>
     <use xlink:href="#DejaVuSans-6c" x="1962.232422"/>
     <use xlink:href="#DejaVuSans-20" x="1990.015625"/>
     <use xlink:href="#DejaVuSans-74" x="2021.802734"/>
     <use xlink:href="#DejaVuSans-79" x="2061.011719"/>
     <use xlink:href="#DejaVuSans-70" x="2120.191406"/>
     <use xlink:href="#DejaVuSans-65" x="2183.667969"/>
     <use xlink:href="#DejaVuSans-20" x="2245.191406"/>
     <use xlink:href="#DejaVuSans-69" x="2276.978516"/>
     <use xlink:href="#DejaVuSans-6e" x="2304.761719"/>
     <use xlink:href="#DejaVuSans-20" x="2368.140625"/>
     <use xlink:href="#DejaVuSans-74" x="2399.927734"/>
     <use xlink:href="#DejaVuSans-68" x="2439.136719"/>
     <use xlink:href="#DejaVuSans-65" x="2502.515625"/>
     <use xlink:href="#DejaVuSans-20" x="2564.039062"/>
     <use xlink:href="#DejaVuSans-49" x="2595.826172"/>
     <use xlink:href="#DejaVuSans-50" x="2625.318359"/>
    </g>
   </g>
   <g id="legend_1">
    <g id="patch_127">
     <path d="M 888.85833 220.298812 
L 1053.635205 220.298812 
Q 1056.035205 220.298812 1056.035205 217.898812 
L 1056.035205 39.623812 
Q 1056.035205 37.223813 1053.635205 37.223813 
L 888.85833 37.223813 
Q 886.45833 37.223813 886.45833 39.623812 
L 886.45833 217.898812 
Q 886.45833 220.298812 888.85833 220.298812 
z
" style="fill: #ffffff; opacity: 0.8; stroke: #cccccc; stroke-linejoin: miter"/>
    </g>
    <g id="patch_128">
     <path d="M 891.25833 51.141937 
L 897.25833 51.141937 
L 897.25833 42.741937 
L 891.25833 42.741937 
z
" style="fill: #ffdead"/>
    </g>
    <g id="text_34">
     <!-- CD4_memory_LTB -->
     <g transform="translate(902.05833 51.141937) scale(0.12 -0.12)">
      <defs>
       <path id="DejaVuSans-43" d="M 4122 4306 
L 4122 3641 
Q 3803 3938 3442 4084 
Q 3081 4231 2675 4231 
Q 1875 4231 1450 3742 
Q 1025 3253 1025 2328 
Q 1025 1406 1450 917 
Q 1875 428 2675 428 
Q 3081 428 3442 575 
Q 3803 722 4122 1019 
L 4122 359 
Q 3791 134 3420 21 
Q 3050 -91 2638 -91 
Q 1578 -91 968 557 
Q 359 1206 359 2328 
Q 359 3453 968 4101 
Q 1578 4750 2638 4750 
Q 3056 4750 3426 4639 
Q 3797 4528 4122 4306 
z
" transform="scale(0.015625)"/>
       <path id="DejaVuSans-5f" d="M 3263 -1063 
L 3263 -1509 
L -63 -1509 
L -63 -1063 
L 3263 -1063 
z
" transform="scale(0.015625)"/>
       <path id="DejaVuSans-6d" d="M 3328 2828 
Q 3544 3216 3844 3400 
Q 4144 3584 4550 3584 
Q 5097 3584 5394 3201 
Q 5691 2819 5691 2113 
L 5691 0 
L 5113 0 
L 5113 2094 
Q 5113 2597 4934 2840 
Q 4756 3084 4391 3084 
Q 3944 3084 3684 2787 
Q 3425 2491 3425 1978 
L 3425 0 
L 2847 0 
L 2847 2094 
Q 2847 2600 2669 2842 
Q 2491 3084 2119 3084 
Q 1678 3084 1418 2786 
Q 1159 2488 1159 1978 
L 1159 0 
L 581 0 
L 581 3500 
L 1159 3500 
L 1159 2956 
Q 1356 3278 1631 3431 
Q 1906 3584 2284 3584 
Q 2666 3584 2933 3390 
Q 3200 3197 3328 2828 
z
" transform="scale(0.015625)"/>
       <path id="DejaVuSans-4c" d="M 628 4666 
L 1259 4666 
L 1259 531 
L 3531 531 
L 3531 0 
L 628 0 
L 628 4666 
z
" transform="scale(0.015625)"/>
       <path id="DejaVuSans-42" d="M 1259 2228 
L 1259 519 
L 2272 519 
Q 2781 519 3026 730 
Q 3272 941 3272 1375 
Q 3272 1813 3026 2020 
Q 2781 2228 2272 2228 
L 1259 2228 
z
M 1259 4147 
L 1259 2741 
L 2194 2741 
Q 2656 2741 2882 2914 
Q 3109 3088 3109 3444 
Q 3109 3797 2882 3972 
Q 2656 4147 2194 4147 
L 1259 4147 
z
M 628 4666 
L 2241 4666 
Q 2963 4666 3353 4366 
Q 3744 4066 3744 3513 
Q 3744 3084 3544 2831 
Q 3344 2578 2956 2516 
Q 3422 2416 3680 2098 
Q 3938 1781 3938 1306 
Q 3938 681 3513 340 
Q 3088 0 2303 0 
L 628 0 
L 628 4666 
z
" transform="scale(0.015625)"/>
      </defs>
      <use xlink:href="#DejaVuSans-43"/>
      <use xlink:href="#DejaVuSans-44" x="69.824219"/>
      <use xlink:href="#DejaVuSans-34" x="146.826172"/>
      <use xlink:href="#DejaVuSans-5f" x="210.449219"/>
      <use xlink:href="#DejaVuSans-6d" x="260.449219"/>
      <use xlink:href="#DejaVuSans-65" x="357.861328"/>
      <use xlink:href="#DejaVuSans-6d" x="419.384766"/>
      <use xlink:href="#DejaVuSans-6f" x="516.796875"/>
      <use xlink:href="#DejaVuSans-72" x="577.978516"/>
      <use xlink:href="#DejaVuSans-79" x="619.091797"/>
      <use xlink:href="#DejaVuSans-5f" x="678.271484"/>
      <use xlink:href="#DejaVuSans-4c" x="728.271484"/>
      <use xlink:href="#DejaVuSans-54" x="770.234375"/>
      <use xlink:href="#DejaVuSans-42" x="831.318359"/>
     </g>
    </g>
    <g id="patch_129">
     <path d="M 891.25833 69.089437 
L 897.25833 69.089437 
L 897.25833 60.689437 
L 891.25833 60.689437 
z
" style="fill: #ff8c00"/>
    </g>
    <g id="text_35">
     <!-- CD4_nave_CCR7 -->
     <g transform="translate(902.05833 69.089437) scale(0.12 -0.12)">
      <defs>
       <path id="DejaVuSans-ef" d="M 603 3500 
L 1178 3500 
L 1178 0 
L 603 0 
L 603 3500 
z
M 891 3584 
L 891 3584 
z
M 1182 4850 
L 1816 4850 
L 1816 4219 
L 1182 4219 
L 1182 4850 
z
M -40 4850 
L 594 4850 
L 594 4219 
L -40 4219 
L -40 4850 
z
" transform="scale(0.015625)"/>
       <path id="DejaVuSans-76" d="M 191 3500 
L 800 3500 
L 1894 563 
L 2988 3500 
L 3597 3500 
L 2284 0 
L 1503 0 
L 191 3500 
z
" transform="scale(0.015625)"/>
       <path id="DejaVuSans-52" d="M 2841 2188 
Q 3044 2119 3236 1894 
Q 3428 1669 3622 1275 
L 4263 0 
L 3584 0 
L 2988 1197 
Q 2756 1666 2539 1819 
Q 2322 1972 1947 1972 
L 1259 1972 
L 1259 0 
L 628 0 
L 628 4666 
L 2053 4666 
Q 2853 4666 3247 4331 
Q 3641 3997 3641 3322 
Q 3641 2881 3436 2590 
Q 3231 2300 2841 2188 
z
M 1259 4147 
L 1259 2491 
L 2053 2491 
Q 2509 2491 2742 2702 
Q 2975 2913 2975 3322 
Q 2975 3731 2742 3939 
Q 2509 4147 2053 4147 
L 1259 4147 
z
" transform="scale(0.015625)"/>
      </defs>
      <use xlink:href="#DejaVuSans-43"/>
      <use xlink:href="#DejaVuSans-44" x="69.824219"/>
      <use xlink:href="#DejaVuSans-34" x="146.826172"/>
      <use xlink:href="#DejaVuSans-5f" x="210.449219"/>
      <use xlink:href="#DejaVuSans-6e" x="260.449219"/>
      <use xlink:href="#DejaVuSans-61" x="323.828125"/>
      <use xlink:href="#DejaVuSans-ef" x="385.107422"/>
      <use xlink:href="#DejaVuSans-76" x="412.890625"/>
      <use xlink:href="#DejaVuSans-65" x="472.070312"/>
      <use xlink:href="#DejaVuSans-5f" x="533.59375"/>
      <use xlink:href="#DejaVuSans-43" x="583.59375"/>
      <use xlink:href="#DejaVuSans-43" x="653.417969"/>
      <use xlink:href="#DejaVuSans-52" x="723.242188"/>
      <use xlink:href="#DejaVuSans-37" x="792.724609"/>
     </g>
    </g>
    <g id="patch_130">
     <path d="M 891.25833 87.036937 
L 897.25833 87.036937 
L 897.25833 78.636937 
L 891.25833 78.636937 
z
" style="fill: #9acd32"/>
    </g>
    <g id="text_36">
     <!-- CD8_EMRA_PRF1 -->
     <g transform="translate(902.05833 87.036937) scale(0.12 -0.12)">
      <defs>
       <path id="DejaVuSans-45" d="M 628 4666 
L 3578 4666 
L 3578 4134 
L 1259 4134 
L 1259 2753 
L 3481 2753 
L 3481 2222 
L 1259 2222 
L 1259 531 
L 3634 531 
L 3634 0 
L 628 0 
L 628 4666 
z
" transform="scale(0.015625)"/>
       <path id="DejaVuSans-4d" d="M 628 4666 
L 1569 4666 
L 2759 1491 
L 3956 4666 
L 4897 4666 
L 4897 0 
L 4281 0 
L 4281 4097 
L 3078 897 
L 2444 897 
L 1241 4097 
L 1241 0 
L 628 0 
L 628 4666 
z
" transform="scale(0.015625)"/>
       <path id="DejaVuSans-41" d="M 2188 4044 
L 1331 1722 
L 3047 1722 
L 2188 4044 
z
M 1831 4666 
L 2547 4666 
L 4325 0 
L 3669 0 
L 3244 1197 
L 1141 1197 
L 716 0 
L 50 0 
L 1831 4666 
z
" transform="scale(0.015625)"/>
      </defs>
      <use xlink:href="#DejaVuSans-43"/>
      <use xlink:href="#DejaVuSans-44" x="69.824219"/>
      <use xlink:href="#DejaVuSans-38" x="146.826172"/>
      <use xlink:href="#DejaVuSans-5f" x="210.449219"/>
      <use xlink:href="#DejaVuSans-45" x="260.449219"/>
      <use xlink:href="#DejaVuSans-4d" x="323.632812"/>
      <use xlink:href="#DejaVuSans-52" x="409.912109"/>
      <use xlink:href="#DejaVuSans-41" x="475.394531"/>
      <use xlink:href="#DejaVuSans-5f" x="543.802734"/>
      <use xlink:href="#DejaVuSans-50" x="593.802734"/>
      <use xlink:href="#DejaVuSans-52" x="654.105469"/>
      <use xlink:href="#DejaVuSans-46" x="723.587891"/>
      <use xlink:href="#DejaVuSans-31" x="781.107422"/>
     </g>
    </g>
    <g id="patch_131">
     <path d="M 891.25833 104.984437 
L 897.25833 104.984437 
L 897.25833 96.584437 
L 891.25833 96.584437 
z
" style="fill: #008000"/>
    </g>
    <g id="text_37">
     <!-- CD8_EM_GZMK -->
     <g transform="translate(902.05833 104.984437) scale(0.12 -0.12)">
      <defs>
       <path id="DejaVuSans-47" d="M 3809 666 
L 3809 1919 
L 2778 1919 
L 2778 2438 
L 4434 2438 
L 4434 434 
Q 4069 175 3628 42 
Q 3188 -91 2688 -91 
Q 1594 -91 976 548 
Q 359 1188 359 2328 
Q 359 3472 976 4111 
Q 1594 4750 2688 4750 
Q 3144 4750 3555 4637 
Q 3966 4525 4313 4306 
L 4313 3634 
Q 3963 3931 3569 4081 
Q 3175 4231 2741 4231 
Q 1884 4231 1454 3753 
Q 1025 3275 1025 2328 
Q 1025 1384 1454 906 
Q 1884 428 2741 428 
Q 3075 428 3337 486 
Q 3600 544 3809 666 
z
" transform="scale(0.015625)"/>
       <path id="DejaVuSans-5a" d="M 359 4666 
L 4025 4666 
L 4025 4184 
L 1075 531 
L 4097 531 
L 4097 0 
L 288 0 
L 288 481 
L 3238 4134 
L 359 4134 
L 359 4666 
z
" transform="scale(0.015625)"/>
       <path id="DejaVuSans-4b" d="M 628 4666 
L 1259 4666 
L 1259 2694 
L 3353 4666 
L 4166 4666 
L 1850 2491 
L 4331 0 
L 3500 0 
L 1259 2247 
L 1259 0 
L 628 0 
L 628 4666 
z
" transform="scale(0.015625)"/>
      </defs>
      <use xlink:href="#DejaVuSans-43"/>
      <use xlink:href="#DejaVuSans-44" x="69.824219"/>
      <use xlink:href="#DejaVuSans-38" x="146.826172"/>
      <use xlink:href="#DejaVuSans-5f" x="210.449219"/>
      <use xlink:href="#DejaVuSans-45" x="260.449219"/>
      <use xlink:href="#DejaVuSans-4d" x="323.632812"/>
      <use xlink:href="#DejaVuSans-5f" x="409.912109"/>
      <use xlink:href="#DejaVuSans-47" x="459.912109"/>
      <use xlink:href="#DejaVuSans-5a" x="537.402344"/>
      <use xlink:href="#DejaVuSans-4d" x="605.908203"/>
      <use xlink:href="#DejaVuSans-4b" x="692.1875"/>
     </g>
    </g>
    <g id="patch_132">
     <path d="M 891.25833 122.931937 
L 897.25833 122.931937 
L 897.25833 114.531937 
L 891.25833 114.531937 
z
" style="fill: #add8e6"/>
    </g>
    <g id="text_38">
     <!-- CD8_effector_CX3CR1 -->
     <g transform="translate(902.05833 122.931937) scale(0.12 -0.12)">
      <defs>
       <path id="DejaVuSans-58" d="M 403 4666 
L 1081 4666 
L 2241 2931 
L 3406 4666 
L 4084 4666 
L 2584 2425 
L 4184 0 
L 3506 0 
L 2194 1984 
L 872 0 
L 191 0 
L 1856 2491 
L 403 4666 
z
" transform="scale(0.015625)"/>
      </defs>
      <use xlink:href="#DejaVuSans-43"/>
      <use xlink:href="#DejaVuSans-44" x="69.824219"/>
      <use xlink:href="#DejaVuSans-38" x="146.826172"/>
      <use xlink:href="#DejaVuSans-5f" x="210.449219"/>
      <use xlink:href="#DejaVuSans-65" x="260.449219"/>
      <use xlink:href="#DejaVuSans-66" x="321.972656"/>
      <use xlink:href="#DejaVuSans-66" x="357.177734"/>
      <use xlink:href="#DejaVuSans-65" x="392.382812"/>
      <use xlink:href="#DejaVuSans-63" x="453.90625"/>
      <use xlink:href="#DejaVuSans-74" x="508.886719"/>
      <use xlink:href="#DejaVuSans-6f" x="548.095703"/>
      <use xlink:href="#DejaVuSans-72" x="609.277344"/>
      <use xlink:href="#DejaVuSans-5f" x="650.390625"/>
      <use xlink:href="#DejaVuSans-43" x="700.390625"/>
      <use xlink:href="#DejaVuSans-58" x="770.214844"/>
      <use xlink:href="#DejaVuSans-33" x="838.720703"/>
      <use xlink:href="#DejaVuSans-43" x="902.34375"/>
      <use xlink:href="#DejaVuSans-52" x="972.167969"/>
      <use xlink:href="#DejaVuSans-31" x="1041.650391"/>
     </g>
    </g>
    <g id="patch_133">
     <path d="M 891.25833 140.879437 
L 897.25833 140.879437 
L 897.25833 132.479437 
L 891.25833 132.479437 
z
" style="fill: #6495ed"/>
    </g>
    <g id="text_39">
     <!-- CD8_effector_TYROBP -->
     <g transform="translate(902.05833 140.879437) scale(0.12 -0.12)">
      <defs>
       <path id="DejaVuSans-59" d="M -13 4666 
L 666 4666 
L 1959 2747 
L 3244 4666 
L 3922 4666 
L 2272 2222 
L 2272 0 
L 1638 0 
L 1638 2222 
L -13 4666 
z
" transform="scale(0.015625)"/>
       <path id="DejaVuSans-4f" d="M 2522 4238 
Q 1834 4238 1429 3725 
Q 1025 3213 1025 2328 
Q 1025 1447 1429 934 
Q 1834 422 2522 422 
Q 3209 422 3611 934 
Q 4013 1447 4013 2328 
Q 4013 3213 3611 3725 
Q 3209 4238 2522 4238 
z
M 2522 4750 
Q 3503 4750 4090 4092 
Q 4678 3434 4678 2328 
Q 4678 1225 4090 567 
Q 3503 -91 2522 -91 
Q 1538 -91 948 565 
Q 359 1222 359 2328 
Q 359 3434 948 4092 
Q 1538 4750 2522 4750 
z
" transform="scale(0.015625)"/>
      </defs>
      <use xlink:href="#DejaVuSans-43"/>
      <use xlink:href="#DejaVuSans-44" x="69.824219"/>
      <use xlink:href="#DejaVuSans-38" x="146.826172"/>
      <use xlink:href="#DejaVuSans-5f" x="210.449219"/>
      <use xlink:href="#DejaVuSans-65" x="260.449219"/>
      <use xlink:href="#DejaVuSans-66" x="321.972656"/>
      <use xlink:href="#DejaVuSans-66" x="357.177734"/>
      <use xlink:href="#DejaVuSans-65" x="392.382812"/>
      <use xlink:href="#DejaVuSans-63" x="453.90625"/>
      <use xlink:href="#DejaVuSans-74" x="508.886719"/>
      <use xlink:href="#DejaVuSans-6f" x="548.095703"/>
      <use xlink:href="#DejaVuSans-72" x="609.277344"/>
      <use xlink:href="#DejaVuSans-5f" x="650.390625"/>
      <use xlink:href="#DejaVuSans-54" x="700.390625"/>
      <use xlink:href="#DejaVuSans-59" x="761.474609"/>
      <use xlink:href="#DejaVuSans-52" x="822.558594"/>
      <use xlink:href="#DejaVuSans-4f" x="892.041016"/>
      <use xlink:href="#DejaVuSans-42" x="970.751953"/>
      <use xlink:href="#DejaVuSans-50" x="1039.355469"/>
     </g>
    </g>
    <g id="patch_134">
     <path d="M 891.25833 158.826937 
L 897.25833 158.826937 
L 897.25833 150.426937 
L 891.25833 150.426937 
z
" style="fill: #00008b"/>
    </g>
    <g id="text_40">
     <!-- CD8_effector_ZEB2 -->
     <g transform="translate(902.05833 158.826937) scale(0.12 -0.12)">
      <use xlink:href="#DejaVuSans-43"/>
      <use xlink:href="#DejaVuSans-44" x="69.824219"/>
      <use xlink:href="#DejaVuSans-38" x="146.826172"/>
      <use xlink:href="#DejaVuSans-5f" x="210.449219"/>
      <use xlink:href="#DejaVuSans-65" x="260.449219"/>
      <use xlink:href="#DejaVuSans-66" x="321.972656"/>
      <use xlink:href="#DejaVuSans-66" x="357.177734"/>
      <use xlink:href="#DejaVuSans-65" x="392.382812"/>
      <use xlink:href="#DejaVuSans-63" x="453.90625"/>
      <use xlink:href="#DejaVuSans-74" x="508.886719"/>
      <use xlink:href="#DejaVuSans-6f" x="548.095703"/>
      <use xlink:href="#DejaVuSans-72" x="609.277344"/>
      <use xlink:href="#DejaVuSans-5f" x="650.390625"/>
      <use xlink:href="#DejaVuSans-5a" x="700.390625"/>
      <use xlink:href="#DejaVuSans-45" x="768.896484"/>
      <use xlink:href="#DejaVuSans-42" x="832.080078"/>
      <use xlink:href="#DejaVuSans-32" x="900.683594"/>
     </g>
    </g>
    <g id="patch_135">
     <path d="M 891.25833 176.774437 
L 897.25833 176.774437 
L 897.25833 168.374437 
L 891.25833 168.374437 
z
" style="fill: #dda0dd"/>
    </g>
    <g id="text_41">
     <!-- CD8_exhausted-like_TOX -->
     <g transform="translate(902.05833 176.774437) scale(0.12 -0.12)">
      <defs>
       <path id="DejaVuSans-78" d="M 3513 3500 
L 2247 1797 
L 3578 0 
L 2900 0 
L 1881 1375 
L 863 0 
L 184 0 
L 1544 1831 
L 300 3500 
L 978 3500 
L 1906 2253 
L 2834 3500 
L 3513 3500 
z
" transform="scale(0.015625)"/>
       <path id="DejaVuSans-2d" d="M 313 2009 
L 1997 2009 
L 1997 1497 
L 313 1497 
L 313 2009 
z
" transform="scale(0.015625)"/>
       <path id="DejaVuSans-6b" d="M 581 4863 
L 1159 4863 
L 1159 1991 
L 2875 3500 
L 3609 3500 
L 1753 1863 
L 3688 0 
L 2938 0 
L 1159 1709 
L 1159 0 
L 581 0 
L 581 4863 
z
" transform="scale(0.015625)"/>
      </defs>
      <use xlink:href="#DejaVuSans-43"/>
      <use xlink:href="#DejaVuSans-44" x="69.824219"/>
      <use xlink:href="#DejaVuSans-38" x="146.826172"/>
      <use xlink:href="#DejaVuSans-5f" x="210.449219"/>
      <use xlink:href="#DejaVuSans-65" x="260.449219"/>
      <use xlink:href="#DejaVuSans-78" x="320.222656"/>
      <use xlink:href="#DejaVuSans-68" x="379.402344"/>
      <use xlink:href="#DejaVuSans-61" x="442.78125"/>
      <use xlink:href="#DejaVuSans-75" x="504.060547"/>
      <use xlink:href="#DejaVuSans-73" x="567.439453"/>
      <use xlink:href="#DejaVuSans-74" x="619.539062"/>
      <use xlink:href="#DejaVuSans-65" x="658.748047"/>
      <use xlink:href="#DejaVuSans-64" x="720.271484"/>
      <use xlink:href="#DejaVuSans-2d" x="783.748047"/>
      <use xlink:href="#DejaVuSans-6c" x="819.832031"/>
      <use xlink:href="#DejaVuSans-69" x="847.615234"/>
      <use xlink:href="#DejaVuSans-6b" x="875.398438"/>
      <use xlink:href="#DejaVuSans-65" x="929.683594"/>
      <use xlink:href="#DejaVuSans-5f" x="991.207031"/>
      <use xlink:href="#DejaVuSans-54" x="1041.207031"/>
      <use xlink:href="#DejaVuSans-4f" x="1102.291016"/>
      <use xlink:href="#DejaVuSans-58" x="1174.626953"/>
     </g>
    </g>
    <g id="patch_136">
     <path d="M 891.25833 194.721937 
L 897.25833 194.721937 
L 897.25833 186.321937 
L 891.25833 186.321937 
z
" style="fill: #da70d6"/>
    </g>
    <g id="text_42">
     <!-- CD8_nave_NELL2 -->
     <g transform="translate(902.05833 194.721937) scale(0.12 -0.12)">
      <defs>
       <path id="DejaVuSans-4e" d="M 628 4666 
L 1478 4666 
L 3547 763 
L 3547 4666 
L 4159 4666 
L 4159 0 
L 3309 0 
L 1241 3903 
L 1241 0 
L 628 0 
L 628 4666 
z
" transform="scale(0.015625)"/>
      </defs>
      <use xlink:href="#DejaVuSans-43"/>
      <use xlink:href="#DejaVuSans-44" x="69.824219"/>
      <use xlink:href="#DejaVuSans-38" x="146.826172"/>
      <use xlink:href="#DejaVuSans-5f" x="210.449219"/>
      <use xlink:href="#DejaVuSans-6e" x="260.449219"/>
      <use xlink:href="#DejaVuSans-61" x="323.828125"/>
      <use xlink:href="#DejaVuSans-ef" x="385.107422"/>
      <use xlink:href="#DejaVuSans-76" x="412.890625"/>
      <use xlink:href="#DejaVuSans-65" x="472.070312"/>
      <use xlink:href="#DejaVuSans-5f" x="533.59375"/>
      <use xlink:href="#DejaVuSans-4e" x="583.59375"/>
      <use xlink:href="#DejaVuSans-45" x="658.398438"/>
      <use xlink:href="#DejaVuSans-4c" x="721.582031"/>
      <use xlink:href="#DejaVuSans-4c" x="777.294922"/>
      <use xlink:href="#DejaVuSans-32" x="833.007812"/>
     </g>
    </g>
    <g id="patch_137">
     <path d="M 891.25833 212.669437 
L 897.25833 212.669437 
L 897.25833 204.269437 
L 891.25833 204.269437 
z
" style="fill: #9932cc"/>
    </g>
    <g id="text_43">
     <!-- CD8_proliferating_MKI67 -->
     <g transform="translate(902.05833 212.669437) scale(0.12 -0.12)">
      <defs>
       <path id="DejaVuSans-67" d="M 2906 1791 
Q 2906 2416 2648 2759 
Q 2391 3103 1925 3103 
Q 1463 3103 1205 2759 
Q 947 2416 947 1791 
Q 947 1169 1205 825 
Q 1463 481 1925 481 
Q 2391 481 2648 825 
Q 2906 1169 2906 1791 
z
M 3481 434 
Q 3481 -459 3084 -895 
Q 2688 -1331 1869 -1331 
Q 1566 -1331 1297 -1286 
Q 1028 -1241 775 -1147 
L 775 -588 
Q 1028 -725 1275 -790 
Q 1522 -856 1778 -856 
Q 2344 -856 2625 -561 
Q 2906 -266 2906 331 
L 2906 616 
Q 2728 306 2450 153 
Q 2172 0 1784 0 
Q 1141 0 747 490 
Q 353 981 353 1791 
Q 353 2603 747 3093 
Q 1141 3584 1784 3584 
Q 2172 3584 2450 3431 
Q 2728 3278 2906 2969 
L 2906 3500 
L 3481 3500 
L 3481 434 
z
" transform="scale(0.015625)"/>
      </defs>
      <use xlink:href="#DejaVuSans-43"/>
      <use xlink:href="#DejaVuSans-44" x="69.824219"/>
      <use xlink:href="#DejaVuSans-38" x="146.826172"/>
      <use xlink:href="#DejaVuSans-5f" x="210.449219"/>
      <use xlink:href="#DejaVuSans-70" x="260.449219"/>
      <use xlink:href="#DejaVuSans-72" x="323.925781"/>
      <use xlink:href="#DejaVuSans-6f" x="362.789062"/>
      <use xlink:href="#DejaVuSans-6c" x="423.970703"/>
      <use xlink:href="#DejaVuSans-69" x="451.753906"/>
      <use xlink:href="#DejaVuSans-66" x="479.537109"/>
      <use xlink:href="#DejaVuSans-65" x="514.742188"/>
      <use xlink:href="#DejaVuSans-72" x="576.265625"/>
      <use xlink:href="#DejaVuSans-61" x="617.378906"/>
      <use xlink:href="#DejaVuSans-74" x="678.658203"/>
      <use xlink:href="#DejaVuSans-69" x="717.867188"/>
      <use xlink:href="#DejaVuSans-6e" x="745.650391"/>
      <use xlink:href="#DejaVuSans-67" x="809.029297"/>
      <use xlink:href="#DejaVuSans-5f" x="872.505859"/>
      <use xlink:href="#DejaVuSans-4d" x="922.505859"/>
      <use xlink:href="#DejaVuSans-4b" x="1008.785156"/>
      <use xlink:href="#DejaVuSans-49" x="1074.361328"/>
      <use xlink:href="#DejaVuSans-36" x="1103.853516"/>
      <use xlink:href="#DejaVuSans-37" x="1167.476562"/>
     </g>
    </g>
   </g>
  </g>
 </g>
 <defs>
  <clipPath id="pa331b6b124">
   <rect x="48.8975" y="37.837812" width="830.7301" height="264.56"/>
  </clipPath>
 </defs>
</svg>
